<?xml version="1.0" encoding="utf-8"?>
<!-- Generator: Adobe Illustrator 24.0.3, SVG Export Plug-In . SVG Version: 6.00 Build 0)  -->
<svg version="1.1" id="Layer_1" xmlns="http://www.w3.org/2000/svg" xmlns:xlink="http://www.w3.org/1999/xlink" x="0px" y="0px"
	 viewBox="0 0 49.8 49.8" style="enable-background:new 0 0 49.8 49.8;" xml:space="preserve">
<style type="text/css">
	.st0{fill:#D0DD28;}
	.st1{fill:#FFFFFF;}
</style>
<title>ic_calendar</title>
<g id="Layer_2_1_">
	<g id="Layer_1-2">
		<circle class="st0" cx="24.9" cy="24.9" r="24.9"/>
		<path class="st1" d="M32,16.5c1.1,0,2-0.9,2-2v-2.1c0-1.1-0.9-2-2-2c-1.1,0-2,0.9-2,2v2.1C30,15.6,30.9,16.5,32,16.5
			C32,16.5,32,16.5,32,16.5z"/>
		<path class="st1" d="M39.2,13.8h-4.1v1c0.1,1.7-1.2,3.2-2.9,3.3c-1.7,0.1-3.2-1.2-3.3-2.9c0-0.1,0-0.2,0-0.4v-1h-8.2v1
			c0.1,1.7-1.2,3.2-2.9,3.3c-1.7,0.1-3.2-1.2-3.3-2.9c0-0.1,0-0.2,0-0.4v-1l-4.1-0.1v25.7h28.7L39.2,13.8z M37.2,37.4H12.6V21h24.6
			L37.2,37.4L37.2,37.4z"/>
		<path class="st1" d="M17.7,16.5c1.1,0,2-0.9,2-2v-2.1c0-1.1-0.9-2-2-2s-2,0.9-2,2v2.1C15.7,15.6,16.5,16.5,17.7,16.5
			C17.7,16.5,17.7,16.5,17.7,16.5z"/>
		<rect x="20.8" y="23.2" class="st1" width="3.2" height="2.9"/>
		<rect x="26" y="23.2" class="st1" width="3.2" height="2.9"/>
		<rect x="30.9" y="23.2" class="st1" width="3.2" height="2.9"/>
		<rect x="20.8" y="27.9" class="st1" width="3.2" height="2.9"/>
		<rect x="26" y="27.9" class="st1" width="3.2" height="2.9"/>
		<rect x="30.9" y="27.9" class="st1" width="3.2" height="2.9"/>
		<rect x="20.8" y="32.8" class="st1" width="3.2" height="2.8"/>
		<rect x="15.6" y="27.9" class="st1" width="3.2" height="2.9"/>
		<rect x="15.6" y="32.8" class="st1" width="3.2" height="2.8"/>
		<rect x="26" y="32.8" class="st1" width="3.2" height="2.8"/>
		<rect x="30.9" y="32.8" class="st1" width="3.2" height="2.8"/>
	</g>
</g>
</svg>
