<svg xmlns="http://www.w3.org/2000/svg" width="141.629" height="114.108" viewBox="0 0 141.629 114.108">
  <path id="Path_31" data-name="Path 31" d="M371.994,293.675a50.109,50.109,0,0,0-5.4,3.268,62.54,62.54,0,0,0,20.887,5.116,42.942,42.942,0,0,0,21.032-3.694,79.991,79.991,0,0,0,8.8-4.69c7.392-3.979,15.921-8.811,21.029-9.094a10.619,10.619,0,0,1,3.27.429,3.6,3.6,0,0,1,2.556,1.419l.858,1.134-.994,1.14c-1.282,1.278-3.127,2.983-4.976,4.547-1.709,1.28-3.694,2.7-4.688,3.552-3.414,2.557-6.824,4.972-10.514,7.246-3.41,2.134-6.96,4.122-10.514,6.109-1.989,1-4.125,1.992-6.261,2.985-2.129.851-4.257,1.7-6.53,2.416-4.4,1.563-7.107,1.707-11.795,1.847h-.14c-6.11.427-11.936.711-17.9,1-5.972.142-11.934.282-18.047.282-2.7,0-6.536,1.563-10.515,3.837a84.342,84.342,0,0,0-14.495,10.373l-1.278,1.136-5.73,5.551s-9.155-11.075-11.213-14.548c-1.837-3.1-6.035-10.962-6.035-10.962l.528-1.78.711-1.28a171.813,171.813,0,0,1,14.352-17.76c4.406-4.547,8.665-8.386,11.652-9.522,4.83-1.847,14.21-2.272,21.314-2.7,1.986,0,3.835-.141,5.4-.285a46.876,46.876,0,0,0,4.69-.282c1.559-.144,3.126-.285,4.688-.571,2.7-.427,5.4-.709,8.1-1.279,2.556-.426,5.259-.855,8.1-1.422l1.558-.284c2.847-.567,5.686-1.134,8.385-1.419a12.365,12.365,0,0,0,2.417-.284h2.275l1.418-.141.427,1.417a5.319,5.319,0,0,1,0,2.133,6.255,6.255,0,0,1-.71,2.132,14.373,14.373,0,0,1-3.123,4.119,20.807,20.807,0,0,1-5.123,2.985,39.733,39.733,0,0,1-6.957,2.132c-.711.284-1.421.427-2.272.711a89.8,89.8,0,0,0-9.238,2.983Zm1.419-68.2c-16.765,0-30.4,7.815-30.4,17.335,0,9.8,13.639,17.62,30.4,17.62s30.265-7.818,30.265-17.62c0-9.52-13.5-17.335-30.265-17.335Zm0,37.228c-15.487,0-27.99-6.537-30.121-15.063a12.192,12.192,0,0,0-.283,2.274c0,9.663,13.639,17.478,30.4,17.478s30.265-7.815,30.265-17.478a12.707,12.707,0,0,0-.279-2.274c-1.989,8.526-14.639,15.063-29.986,15.063Zm0,7.1c-15.487,0-27.99-6.68-30.121-15.2a12.161,12.161,0,0,0-.283,2.272c0,9.662,13.639,17.479,30.4,17.479s30.265-7.817,30.265-17.479a12.674,12.674,0,0,0-.279-2.272c-1.989,8.524-14.639,15.2-29.986,15.2Z" transform="translate(-303.403 -225.472)" fill="#d2d50c" fill-rule="evenodd"/>
</svg>
