<?xml version="1.0" encoding="utf-8"?>
<!-- Generator: Adobe Illustrator 24.0.3, SVG Export Plug-In . SVG Version: 6.00 Build 0)  -->
<svg version="1.1" id="Layer_1" xmlns="http://www.w3.org/2000/svg" xmlns:xlink="http://www.w3.org/1999/xlink" x="0px" y="0px"
	 viewBox="0 0 40.5 40.5" style="enable-background:new 0 0 40.5 40.5;" xml:space="preserve">
<style type="text/css">
	.st0{fill:#D0DD28;}
	.st1{fill-rule:evenodd;clip-rule:evenodd;fill:#FFFFFF;}
</style>
<title>ic_info</title>
<g id="Layer_2_1_">
	<g id="Layer_1-2">
		<circle class="st0" cx="20.2" cy="20.2" r="20.2"/>
		<g id="info">
			<path class="st1" d="M20.2,18.8c-0.4,0-0.7,0.3-0.7,0.7V24c0,0.4,0.3,0.7,0.7,0.7c0.4,0,0.7-0.3,0.7-0.7v-4.5
				C21,19.1,20.7,18.8,20.2,18.8C20.3,18.8,20.3,18.8,20.2,18.8z M19.5,16.5L19.5,16.5z M20.2,11.3c-5,0-9,4-9,9s4,9,9,9s9-4,9-9
				c0-4.9-3.9-9-8.9-9C20.3,11.3,20.3,11.3,20.2,11.3z M20.2,27.7c-4.1,0-7.5-3.3-7.5-7.5c0-4.1,3.3-7.5,7.5-7.5
				c4.1,0,7.5,3.3,7.5,7.5S24.4,27.7,20.2,27.7z M21,16.5L21,16.5z M20.3,15.8c-0.4,0-0.7,0.3-0.7,0.7s0.3,0.7,0.7,0.7
				c0.4,0,0.7-0.3,0.7-0.7l0,0C21,16.1,20.7,15.8,20.3,15.8C20.3,15.8,20.3,15.8,20.3,15.8L20.3,15.8z"/>
		</g>
	</g>
</g>
</svg>
