<?xml version="1.0" encoding="utf-8"?>
<!-- Generator: Adobe Illustrator 24.0.3, SVG Export Plug-In . SVG Version: 6.00 Build 0)  -->
<svg version="1.1" id="Layer_1" xmlns="http://www.w3.org/2000/svg" xmlns:xlink="http://www.w3.org/1999/xlink" x="0px" y="0px"
	 viewBox="0 0 36.4 40.4" enable-background="new 0 0 36.4 40.4" xml:space="preserve">
<title>Asset 6</title>
<g id="Layer_2_1_">
	<g id="Layer_1-2">
		<path fill="#D0DD28" d="M35.7,21.6h-4.9c-0.4,0-0.6,0.3-0.6,0.6c0,0,0,0,0,0c0,6.6-5.4,12-12,12c-6.6,0-12-5.4-12-12
			c0-6.4,5-11.6,11.3-12v3c0,0.4,0.3,0.6,0.7,0.6c0.1,0,0.2,0,0.3-0.1l8.1-6.3c0.3-0.2,0.3-0.6,0.1-0.9c0,0-0.1-0.1-0.1-0.1l-8-6.3
			C18.4,0,18.1,0,17.9,0.1c-0.2,0.1-0.4,0.3-0.4,0.6V4C7.5,4.4-0.3,12.8,0,22.8s8.8,17.9,18.8,17.5C28.6,40,36.3,32,36.4,22.2
			C36.4,21.9,36.1,21.6,35.7,21.6C35.7,21.6,35.7,21.6,35.7,21.6z"/>
	</g>
</g>
</svg>
