<?xml version="1.0" encoding="utf-8"?>
<!-- Generator: Adobe Illustrator 24.0.3, SVG Export Plug-In . SVG Version: 6.00 Build 0)  -->
<svg version="1.1" id="Layer_1" xmlns="http://www.w3.org/2000/svg" xmlns:xlink="http://www.w3.org/1999/xlink" x="0px" y="0px"
	 viewBox="0 0 108.3 108.3" enable-background="new 0 0 108.3 108.3" xml:space="preserve">
<title>ic_location</title>
<g id="Layer_2_1_">
	<g id="Layer_1-2">
		<circle fill="#939598" cx="54.1" cy="54.1" r="54.1"/>
		<g id="pin">
			<path fill-rule="evenodd" clip-rule="evenodd" fill="#FFFFFF" d="M54.1,45.4c-4.8,0-8.7,3.9-8.7,8.7s3.9,8.7,8.7,8.7
				s8.7-3.9,8.7-8.7l0,0C62.9,49.3,58.9,45.4,54.1,45.4z M54.1,58.5c-2.4,0-4.4-1.9-4.4-4.4c0-2.4,1.9-4.4,4.4-4.4
				c2.4,0,4.4,1.9,4.4,4.4l0,0C58.5,56.5,56.5,58.5,54.1,58.5z M54.1,32.3c-12.1,0-21.8,9.8-21.8,21.8s21.8,30.5,21.8,30.5
				s21.8-18.5,21.8-30.5C75.9,42.1,66.2,32.3,54.1,32.3L54.1,32.3z M54.1,78.1c0,0-17.5-14.3-17.5-24c0.2-9.6,8.2-17.3,17.9-17
				c9.3,0.2,16.8,7.7,17,17C71.6,63.8,54.1,78.1,54.1,78.1z"/>
		</g>
	</g>
</g>
</svg>
