<?xml version="1.0" encoding="utf-8"?>
<!-- Generator: Adobe Illustrator 24.0.3, SVG Export Plug-In . SVG Version: 6.00 Build 0)  -->
<svg version="1.1" id="Layer_1" xmlns="http://www.w3.org/2000/svg" xmlns:xlink="http://www.w3.org/1999/xlink" x="0px" y="0px"
	 viewBox="0 0 49.8 49.8" style="enable-background:new 0 0 49.8 49.8;" xml:space="preserve">
<style type="text/css">
	.st0{fill:#D0DD28;}
	.st1{fill-rule:evenodd;clip-rule:evenodd;fill:#FFFFFF;}
</style>
<title>ic_location_primary</title>
<g id="Layer_2_1_">
	<g id="Layer_1-2">
		<circle class="st0" cx="24.9" cy="24.9" r="24.9"/>
		<g id="pin">
			<path class="st1" d="M24.9,20.9c-2.2,0-4,1.8-4,4s1.8,4,4,4s4-1.8,4-4S27.1,20.9,24.9,20.9z M24.9,26.9c-1.1,0-2-0.9-2-2
				s0.9-2,2-2s2,0.9,2,2C26.9,26,26,26.9,24.9,26.9C24.9,26.9,24.9,26.9,24.9,26.9L24.9,26.9z M24.9,14.9c-5.5,0-10,4.5-10,10
				c0,5.5,10,14,10,14s10-8.5,10-14C34.9,19.3,30.4,14.9,24.9,14.9C24.9,14.9,24.9,14.9,24.9,14.9L24.9,14.9z M24.9,35.9
				c0,0-8-6.6-8-11c0-4.4,3.6-8,8-8c4.4,0,8,3.6,8,8C32.9,29.3,24.9,35.9,24.9,35.9L24.9,35.9z"/>
		</g>
	</g>
</g>
</svg>
