<?xml version="1.0" encoding="utf-8"?>
<!-- Generator: Adobe Illustrator 24.0.3, SVG Export Plug-In . SVG Version: 6.00 Build 0)  -->
<svg version="1.1" id="Layer_1" xmlns="http://www.w3.org/2000/svg" xmlns:xlink="http://www.w3.org/1999/xlink" x="0px" y="0px"
	 viewBox="0 0 163.2 163.2" enable-background="new 0 0 163.2 163.2" xml:space="preserve">
<title>Asset 2</title>
<g id="Layer_2_1_">
	<g id="Layer_1-2">
		<circle fill="none" stroke="#D0DD28" stroke-width="2" stroke-miterlimit="10" cx="81.6" cy="81.6" r="80.6"/>
		<path fill="#D0DD28" d="M47.6,42.8h68.1c0.7,0,1.2,0.5,1.2,1.2v79.7c0,0.7-0.5,1.2-1.2,1.2H47.6c-0.7,0-1.2-0.5-1.2-1.2V44
			C46.3,43.3,46.9,42.8,47.6,42.8z"/>
		<path fill="#FFFFFF" d="M56.1,49h52.1c0.7,0,1.2,0.5,1.2,1.2v63.5c0,0.7-0.5,1.2-1.2,1.2H56.1c-0.7,0-1.2-0.5-1.2-1.2V50.2
			C54.9,49.6,55.4,49,56.1,49z"/>
		<path fill="#D0DD28" d="M101.9,39H90.3c-0.7-4.8-5-8.1-9.8-7.5c-3.9,0.5-6.9,3.6-7.5,7.5H61.3c-0.7,0-1.2,0.5-1.2,1.2v12.9
			c0,0.7,0.5,1.2,1.2,1.2h40.6c0.7,0,1.2-0.5,1.2-1.2V40.3C103.1,39.6,102.6,39,101.9,39z"/>
		<path fill="#D0DD28" d="M68.2,68.5c0,1.8-1.4,3.3-3.2,3.3c-1.8,0-3.3-1.4-3.3-3.2c0-1.8,1.4-3.3,3.2-3.3c0,0,0,0,0,0
			C66.7,65.2,68.2,66.7,68.2,68.5C68.2,68.5,68.2,68.5,68.2,68.5z"/>
		<path fill="#D0DD28" d="M73.8,68.5L73.8,68.5z"/>
		<path fill="#D0DD28" d="M100.1,69.7H73.8c-0.7,0-1.2-0.5-1.2-1.2c0-0.7,0.5-1.2,1.2-1.2c0,0,0,0,0,0h26.3c0.7,0,1.2,0.5,1.2,1.2
			C101.3,69.2,100.8,69.7,100.1,69.7z"/>
		<path fill="#D0DD28" d="M68.2,79c0,1.8-1.4,3.3-3.2,3.3c-1.8,0-3.3-1.4-3.3-3.2c0-1.8,1.4-3.3,3.2-3.3c0,0,0,0,0,0
			C66.7,75.7,68.2,77.2,68.2,79C68.2,79,68.2,79,68.2,79z"/>
		<path fill="#D0DD28" d="M73.8,79L73.8,79z"/>
		<path fill="#D0DD28" d="M100.1,80.2H73.8c-0.7,0-1.2-0.5-1.2-1.2c0-0.7,0.5-1.2,1.2-1.2c0,0,0,0,0,0h26.3c0.7,0,1.2,0.5,1.2,1.2
			C101.3,79.7,100.8,80.2,100.1,80.2z"/>
		<path fill="#D0DD28" d="M68.2,89.6c0,1.8-1.4,3.3-3.2,3.3c-1.8,0-3.3-1.4-3.3-3.2c0-1.8,1.4-3.3,3.2-3.3c0,0,0,0,0,0
			C66.7,86.3,68.2,87.8,68.2,89.6z"/>
		<path fill="#D0DD28" d="M73.8,89.6L73.8,89.6z"/>
		<path fill="#D0DD28" d="M100.1,90.8H73.8c-0.7,0.1-1.3-0.4-1.3-1.1c-0.1-0.7,0.4-1.3,1.1-1.3c0.1,0,0.1,0,0.2,0h26.3
			c0.7-0.1,1.3,0.4,1.3,1.1c0.1,0.7-0.4,1.3-1.1,1.3C100.2,90.8,100.2,90.8,100.1,90.8z"/>
		<path fill="#D0DD28" d="M68.2,100.1c0,1.8-1.4,3.3-3.2,3.3c-1.8,0-3.3-1.4-3.3-3.2c0-1.8,1.4-3.3,3.2-3.3c0,0,0,0,0,0
			C66.7,96.8,68.2,98.3,68.2,100.1z"/>
		<path fill="#D0DD28" d="M73.8,100.1L73.8,100.1z"/>
		<path fill="#D0DD28" d="M100.1,101.3H73.8c-0.7,0-1.2-0.5-1.2-1.2c0-0.7,0.5-1.2,1.2-1.2c0,0,0,0,0,0h26.3c0.7,0,1.2,0.5,1.2,1.2
			C101.3,100.8,100.8,101.3,100.1,101.3z"/>
	</g>
</g>
</svg>
