<?xml version="1.0" encoding="utf-8"?>
<!-- Generator: Adobe Illustrator 24.0.3, SVG Export Plug-In . SVG Version: 6.00 Build 0)  -->
<svg version="1.1" id="Layer_1" xmlns="http://www.w3.org/2000/svg" xmlns:xlink="http://www.w3.org/1999/xlink" x="0px" y="0px"
	 viewBox="0 0 163.2 163.2" style="enable-background:new 0 0 163.2 163.2;" xml:space="preserve">
<style type="text/css">
	.st0{fill:none;stroke:#D0DD28;stroke-width:2;stroke-miterlimit:10;}
	.st1{fill-rule:evenodd;clip-rule:evenodd;fill:#D0DD28;}
</style>
<title>ic_pay</title>
<g id="Layer_2_1_">
	<g id="Layer_1-2">
		<circle class="st0" cx="81.6" cy="81.6" r="80.6"/>
		<path class="st1" d="M76.7,94.4c-1.9,1-3.7,2.1-5.4,3.3c6.6,2.9,13.7,4.6,20.9,5.1c7.2,0.5,14.4-0.7,21-3.7c3-1.4,6-2.9,8.8-4.7
			c7.4-4,15.9-8.8,21-9.1c1.1,0,2.2,0.1,3.3,0.4c1,0.1,1.9,0.6,2.6,1.4l0.9,1.1l-1,1.1c-1.3,1.3-3.1,3-5,4.6
			c-1.7,1.3-3.7,2.7-4.7,3.6c-3.4,2.6-6.8,5-10.5,7.2c-3.4,2.1-7,4.1-10.5,6.1c-2,1-4.1,2-6.3,3s-4.2,1.7-6.5,2.4
			c-4.4,1.6-7.1,1.7-11.8,1.8h-0.1c-6.1,0.4-11.9,0.7-17.9,1s-11.9,0.3-18,0.3c-2.7,0-6.5,1.6-10.5,3.8c-5.2,2.9-10,6.4-14.5,10.4
			l-1.3,1.1l-5.7,5.6c0,0-9.1-11.1-11.2-14.6c-1.8-3.1-6-11-6-11l0.5-1.8l0.7-1.3c4.4-6.2,9.2-12.2,14.4-17.7
			c4.4-4.6,8.7-8.4,11.6-9.5c4.8-1.8,14.2-2.3,21.3-2.7c2,0,3.8-0.1,5.4-0.3c1.6,0,3.1-0.1,4.7-0.3c1.6-0.1,3.1-0.3,4.7-0.6
			c2.7-0.4,5.4-0.7,8.1-1.3s5.3-0.8,8.1-1.4l1.6-0.3c2.8-0.6,5.7-1.1,8.4-1.4c0.8,0,1.6-0.1,2.4-0.2h2.3l1.4-0.1l0.4,1.4
			c0.1,0.7,0.1,1.4,0,2.1c-0.1,0.7-0.3,1.5-0.7,2.1c-0.8,1.6-1.8,3-3.1,4.1c-1.6,1.2-3.3,2.3-5.1,3c-2.3,0.9-4.6,1.6-7,2.1
			c-0.7,0.3-1.4,0.4-2.3,0.7C82.8,92.3,79.7,93.3,76.7,94.4L76.7,94.4z M78.1,26.2c-16.8,0-30.4,7.8-30.4,17.3
			c0,9.8,13.6,17.6,30.4,17.6s30.3-7.8,30.3-17.6C108.4,34,94.9,26.2,78.1,26.2z M78.1,63.5c-15.5,0-28-6.5-30.1-15.1
			c-0.2,0.7-0.3,1.5-0.3,2.3c0,9.7,13.6,17.5,30.4,17.5s30.3-7.8,30.3-17.5c0-0.8-0.1-1.5-0.3-2.3C106.1,56.9,93.5,63.5,78.1,63.5
			L78.1,63.5z M78.1,70.6c-15.5,0-28-6.7-30.1-15.2c-0.2,0.7-0.3,1.5-0.3,2.3c0,9.7,13.6,17.5,30.4,17.5s30.3-7.8,30.3-17.5
			c0-0.8-0.1-1.5-0.3-2.3C106.1,63.9,93.5,70.6,78.1,70.6L78.1,70.6z"/>
	</g>
</g>
</svg>
