<?xml version="1.0" encoding="utf-8"?>
<!-- Generator: Adobe Illustrator 24.0.3, SVG Export Plug-In . SVG Version: 6.00 Build 0)  -->
<svg version="1.1" id="Layer_1" xmlns="http://www.w3.org/2000/svg" xmlns:xlink="http://www.w3.org/1999/xlink" x="0px" y="0px"
	 viewBox="0 0 173.3 173.3" enable-background="new 0 0 173.3 173.3" xml:space="preserve">
<title>Asset 3</title>
<g id="Layer_2_1_">
	<g id="Layer_1-2">
		<path fill="#D0DD28" d="M173.3,86.7c0,47.9-38.8,86.7-86.7,86.7S0,134.5,0,86.7S38.8,0,86.7,0l0,0C134.5,0,173.3,38.8,173.3,86.7
			C173.3,86.6,173.3,86.7,173.3,86.7z"/>
		<path fill="#FDFEFF" d="M99.9,68.5L99,66.6l1.2-0.6l0.8,1.8c0.9-0.4,1.8-0.5,2.8-0.5l0.1,1.5c-0.9-0.1-1.8,0-2.7,0.4
			c-0.9,0.3-1.5,1.2-1.3,2.2c0,0.1,0.1,0.2,0.1,0.3c0.2,0.5,0.6,0.9,1.2,1h13.4c-0.7-6.4-6.4-11-12.8-10.3
			c-5.4,0.6-9.7,4.9-10.3,10.3h6.9C97.8,71.2,98.4,69.3,99.9,68.5z"/>
		<path fill="#3E8258" d="M73.8,70.9c-0.6-1.4-1.7-2.5-3.1-3.2l-8.6,4l0.5,1.1h11.7C74.3,72.2,74.1,71.5,73.8,70.9z"/>
		<path fill="#3E8258" d="M119.8,49.7c1.6,3.4,5.6,4.9,9,3.4c1.4-0.6,2.5-1.7,3.2-3l-4-8.7l-8.6,4C119,46.8,119.2,48.3,119.8,49.7z"
			/>
		<path fill="#3E8258" d="M140.3,68c-3.7-0.9-7.3,1.4-8.2,5c-0.7,3,0.6,6,3.3,7.5l8.8-4.1L140.3,68z"/>
		<path fill="#3E8258" d="M131,78.2c-2-4.3-0.1-9.3,4.2-11.3c1.3-0.6,2.8-0.9,4.3-0.7l-6.6-14.3c-0.8,1.2-2,2.1-3.3,2.7
			c-4.2,2-9.3,0.1-11.2-4.1c-0.6-1.3-0.9-2.8-0.8-4.3l-45,20.7c1.2,0.8,2.2,2,2.8,3.3c0.4,0.8,0.6,1.7,0.7,2.6h15.5
			c0.7-6.4,6.4-11,12.8-10.3c5.4,0.6,9.7,4.9,10.3,10.3h11.2v12l7.6-3.5C132.5,80.5,131.6,79.4,131,78.2z"/>
		<path fill="#3E8258" d="M100.1,71.8c-0.4-0.9-0.1-1.9,0.8-2.4c0.1-0.1,0.2-0.1,0.3-0.1c0.8-0.4,1.8-0.5,2.7-0.4l-0.1-1.5
			c-0.9-0.1-1.9,0.1-2.8,0.5l-0.8-1.8L99,66.7l0.9,1.9c-1.5,0.9-2.1,2.7-1.4,4.3h2.8C100.8,72.7,100.3,72.3,100.1,71.8z"/>
		<path fill="#FDFEFF" d="M61.9,103.2c-2.7-2.6-6.8-3.2-10.1-1.4V86.1c3.3,1.9,7.5,1.3,10.1-1.4c1-1,1.8-2.3,2.2-3.7l-1.4-3
			c0,0.2,0,0.4,0,0.7c0,3.8-3,6.8-6.8,6.8c-1.5,0-2.9-0.5-4.1-1.4l0,0v29l0,0v-9.4c3-2.2,7.3-1.6,9.5,1.4c1.8,2.4,1.8,5.7,0.1,8.1h2
			C65.2,109.9,64.6,105.8,61.9,103.2L61.9,103.2z"/>
		<path fill="#FDFEFF" d="M124.3,101.8c-4.1-2.3-9.3-0.9-11.6,3.2c-0.7,1.3-1.1,2.7-1.1,4.2c0,1.4,0.3,2.8,1,4h2
			c-0.8-1.2-1.3-2.6-1.3-4c0-3.8,3.1-6.8,6.8-6.8c1.5,0,3,0.5,4.2,1.4v9.3h0.1V86.7h-0.1V101.8z"/>
		<path fill="#FDFEFF" d="M112,81c1.2,4.5,5.9,7.2,10.3,5.9c0.7-0.2,1.3-0.5,2-0.8v0.5h0.1v-12h-0.1v9.6c-3,2.3-7.2,1.7-9.5-1.2
			c-1.9-2.5-1.9-5.9,0-8.4h-1.7C113.4,76.8,113,79,112,81z"/>
		<path fill="#FDFEFF" d="M97,86.5c-1.2-1.4-2.7-2.6-4.4-3.3c-5.9-2.5-12.7,0.2-15.2,6.1c-0.6,1.4-0.9,3-0.9,4.5
			c0,0.4,0,0.8,0.1,1.2c0.1,0.6,0.2,1.1,0.3,1.7c1,3.9,3.9,7,7.7,8.3l0,0c1.1,0.4,2.3,0.5,3.5,0.5c4.7,0,8.9-2.8,10.7-7.1l0,0
			C100.4,94.5,99.8,89.9,97,86.5z M84.6,99.6c-0.1-0.1-0.2-0.1-0.4-0.2l0.1-0.2l0.4-1.2c0.4,0.2,0.8,0.4,1.2,0.6
			c0.6,0.2,1.2,0.3,1.8,0.3c1.1,0.1,2.2-0.6,2.3-1.8c0-0.1,0-0.1,0-0.2c0-1.1-0.7-1.8-2.2-2.5c-2.1-0.8-3.4-1.8-3.4-3.6
			c0-1.7,1.4-3.2,3.1-3.3v-2.1h1.3v2c0.9,0,1.9,0.3,2.7,0.7L91,89.5c-0.8-0.5-1.7-0.7-2.6-0.7c-1.6,0-2.1,1-2.1,1.8
			c0,1.1,0.6,1.6,2.4,2.4c2.1,0.9,3.2,1.9,3.2,3.8c0,1.8-1.4,3.4-3.3,3.5v2.2h-1.4v-2.1c-0.2,0-0.4,0-0.6,0
			C86,100.2,85.2,100,84.6,99.6z"/>
		<path fill="#3E8258" d="M60.7,83.6c1.3-1.3,2-3,2-4.8c0-0.2,0-0.4,0-0.7l-1.6-3.5h-9.3v9.6l0,0C54.5,86.2,58.3,86,60.7,83.6z"/>
		<path fill="#3E8258" d="M115.4,83.6c2.4,2.4,6.2,2.6,8.9,0.6v-9.6h-9.5C112.7,77.3,113,81.1,115.4,83.6L115.4,83.6z"/>
		<path fill="#3E8258" d="M115.3,104.4c-1.3,1.3-2,3-2,4.8c0,1.4,0.4,2.8,1.3,4h9.7v-9.3C121.6,101.8,117.8,102,115.3,104.4z"/>
		<path fill="#3E8258" d="M124.3,86.6v-0.5c-4.1,2.3-9.3,0.8-11.5-3.2c-0.3-0.6-0.6-1.2-0.8-1.9c-0.2-0.7-0.3-1.5-0.3-2.3
			c0-1.5,0.4-2.9,1.1-4.2H63.3c2.3,4,0.9,9.2-3.1,11.6c-2.6,1.5-5.8,1.5-8.4,0v15.6c4.1-2.3,9.2-0.8,11.5,3.3c1.4,2.5,1.4,5.6,0,8.1
			h49.3c-1.8-3.3-1.2-7.4,1.5-10c2.7-2.7,6.9-3.2,10.2-1.4V86.6L124.3,86.6L124.3,86.6L124.3,86.6z M88.1,105.5
			c-1.2,0-2.4-0.2-3.5-0.5l0,0c-3.8-1.2-6.7-4.3-7.7-8.2c-0.1-0.5-0.2-1.1-0.3-1.7c-0.7-6.4,4-12.1,10.4-12.8c0.4,0,0.8-0.1,1.1-0.1
			c1.6,0,3.1,0.3,4.6,0.9c1.7,0.7,3.2,1.9,4.4,3.3c2.7,3.3,3.4,7.9,1.7,11.9l0,0C96.9,102.7,92.7,105.5,88.1,105.5z"/>
		<path fill="#3E8258" d="M86.7,100.3c0.2,0,0.4,0,0.6,0v2.1h1.3v-2.2c1.8-0.2,3.3-1.7,3.3-3.5s-1.1-2.9-3.2-3.8
			c-1.8-0.8-2.4-1.3-2.4-2.4c0-0.8,0.5-1.8,2.1-1.8c0.9,0,1.8,0.2,2.6,0.7l0.5-1.4c-0.8-0.5-1.8-0.7-2.7-0.7v-2h-1.3v2.1
			c-1.7,0.1-3.1,1.6-3.1,3.3c0,1.8,1.3,2.8,3.4,3.6c1.5,0.6,2.2,1.4,2.2,2.5s-1,2-2.1,2c-0.1,0-0.1,0-0.2,0c-0.6,0-1.2-0.1-1.8-0.3
			c0.2,0.3,0.4,0.7,0.6,1.1C86.6,99.9,86.7,100.1,86.7,100.3z"/>
		<path fill="#F2CAAA" d="M34.4,91.7c4.9-1.7,17-4.2,28-1.6c10.7,2.6,8.1,1.2,20.5,1.3h1c13.5,0.2,12.3,5.4,12.3,5.4
			c0.4,5.5-5.7,6-5.7,6L68.4,105c0,0-2.3,2.8-1.9,5.4c0.1,0.5,1,0.5,2.5,0.2l15,2.4c-4.7,4-11.5,9.7-14.3,10.3
			c-2.3,0.4-6.8,0-12.7-0.8c-4.4-0.6-9.7-1.4-15.3-2.1c-2.3-0.3-12.3-0.5-16.5,0.4V94.1C28.9,92,31,92.9,34.4,91.7z"/>
	</g>
</g>
</svg>
