<?xml version="1.0" encoding="utf-8"?>
<!-- Generator: Adobe Illustrator 24.0.3, SVG Export Plug-In . SVG Version: 6.00 Build 0)  -->
<svg version="1.1" id="Layer_1" xmlns="http://www.w3.org/2000/svg" xmlns:xlink="http://www.w3.org/1999/xlink" x="0px" y="0px"
	 viewBox="0 0 173.3 173.3" style="enable-background:new 0 0 173.3 173.3;" xml:space="preserve">
<title>Asset 5</title>
<g id="Layer_2_1_">
	<g id="Layer_1-2">
		<path style="fill:#D0DD28;" d="M173.3,86.7c0,47.9-38.8,86.7-86.7,86.7S0,134.5,0,86.7S38.8,0,86.7,0
			C134.5,0,173.3,38.8,173.3,86.7L173.3,86.7z"/>
		<rect x="50.2" y="77.2" style="fill:#E3C08A;" width="81.8" height="66.7"/>
		<polygon style="fill:#C9A779;" points="126.8,66.6 126.7,66.6 126.7,66.5 91.2,66.5 55.6,66.5 55.6,66.6 55.5,66.6 50.2,77.2 
			132.1,77.2 		"/>
		<rect x="85.4" y="77.2" style="fill:#F3F6FB;" width="11.4" height="27.7"/>
		<polygon style="fill:#C7C8CC;" points="95.3,66.5 94.6,66.5 87.8,66.5 87,66.5 85.4,77.2 96.9,77.2 		"/>
		<rect x="108.2" y="136.9" style="fill:#C19F77;" width="19" height="3.8"/>
		<polygon style="fill:#C19F77;" points="116.7,124.1 113.6,121 110.5,124.1 111.5,124.1 111.5,135.8 115.7,135.8 115.7,124.1 		"/>
		<polygon style="fill:#C19F77;" points="125,127 122.7,124.6 120.4,127 121.1,127 121.1,135.8 124.3,135.8 124.3,127 		"/>
		<rect x="53.1" y="82.5" style="fill:#C19F77;" width="13.1" height="2.5"/>
		<rect x="68.5" y="82.5" style="fill:#C19F77;" width="10" height="2.5"/>
		<rect x="53.1" y="87.7" style="fill:#C19F77;" width="7.3" height="2.5"/>
		<rect x="71.2" y="87.7" style="fill:#C19F77;" width="7.3" height="2.5"/>
		<rect x="62.2" y="87.7" style="fill:#C19F77;" width="7.3" height="2.5"/>
		<rect x="66.3" y="35.4" style="fill:#E3C08A;" width="49.6" height="40.5"/>
		<polygon style="fill:#C9A779;" points="112.8,29 112.7,29 112.7,28.9 91.2,28.9 69.6,28.9 69.6,29 69.5,29 66.3,35.4 116,35.4 		
			"/>
		<rect x="87.7" y="35.4" style="fill:#F3F6FB;" width="6.9" height="16.8"/>
		<polygon style="fill:#C7C8CC;" points="93.7,28.9 93.2,28.9 89.1,28.9 88.6,28.9 87.7,35.4 94.6,35.4 		"/>
		<rect x="101.5" y="71.6" style="fill:#C19F77;" width="11.5" height="2.3"/>
		<polygon style="fill:#C19F77;" points="106.6,63.8 104.8,62 102.9,63.8 103.5,63.8 103.5,71 106.1,71 106.1,63.8 		"/>
		<polygon style="fill:#C19F77;" points="111.7,65.6 110.3,64.2 108.9,65.6 109.3,65.6 109.3,71 111.3,71 111.3,65.6 		"/>
		<rect x="68.1" y="38.6" style="fill:#C19F77;" width="7.9" height="1.5"/>
		<rect x="77.4" y="38.6" style="fill:#C19F77;" width="6.1" height="1.5"/>
		<rect x="68.1" y="41.8" style="fill:#C19F77;" width="4.4" height="1.5"/>
		<rect x="79.1" y="41.8" style="fill:#C19F77;" width="4.4" height="1.5"/>
		<rect x="73.6" y="41.8" style="fill:#C19F77;" width="4.4" height="1.5"/>
	</g>
</g>
</svg>
