<?xml version="1.0" encoding="utf-8"?>
<!-- Generator: Adobe Illustrator 24.0.3, SVG Export Plug-In . SVG Version: 6.00 Build 0)  -->
<svg version="1.1" id="Layer_1" xmlns="http://www.w3.org/2000/svg" xmlns:xlink="http://www.w3.org/1999/xlink" x="0px" y="0px"
	 viewBox="0 0 134 51.8" enable-background="new 0 0 134 51.8" xml:space="preserve">
<title>Asset 5</title>
<g id="Layer_2_1_">
	<g id="Layer_1-2">
		<path fill="#FFFFFF" d="M39.8,0.4L38,2.6c-1,1.2-2,2.2-3.2,3.1L33,7.1l1.3,1.8c1.8,2.3,2.8,5.2,2.8,8.1c0,7.5-6.1,13.6-13.6,13.6
			c-7.5,0-13.6-6.1-13.6-13.6c0-2.9,0.9-5.7,2.7-8L14,7.1l-1.8-1.3c-1.1-0.8-2-1.7-2.9-2.6L8.9,2.8L7.2,0.6L5.4,2.7
			c-3.2,4-5,9-5,14.2c0,12.8,10.4,23.1,23.1,23.1s23.1-10.4,23.1-23.1c0-5.2-1.8-10.3-5.1-14.4L39.8,0.4z"/>
		<path fill="#FFFFFF" d="M131.5,31.7c-0.9-0.8-1.8-1.6-2.5-2.6l-1.6-2.1l-2.1,1.6c-1.8,1.4-4.1,2.2-6.4,2.2
			c-5.9,0-10.6-4.8-10.6-10.6c0-5.9,4.8-10.6,10.6-10.6c2.3,0,4.5,0.7,6.3,2.1l2.1,1.6l1.6-2.1c0.6-0.8,1.3-1.6,2.1-2.3
			c0.1-0.1,0.2-0.2,0.3-0.3l2.5-2.1l-2.5-2c-3.5-2.8-7.8-4.4-12.3-4.3c-11,0.1-19.9,9-19.8,20.1c-0.1,3.7,1,7.4,3.2,10.4H90.5
			c1.8-3.2,2.8-6.7,2.8-10.4C93.3,9.1,84.2,0,73,0S52.7,9.1,52.7,20.3c0,10.6,8.2,19.4,18.7,20.2v11.3c3.1-2.3,6-4.8,8.7-7.5
			c0.9-0.9,2.2-2.6,3.5-4.3h32.1c1.1,0.2,2.2,0.3,3.3,0.3c4.5,0,9-1.6,12.5-4.5l2.5-2L131.5,31.7z M73,30.7
			c-5.8,0-10.5-4.7-10.4-10.5S67.3,9.8,73,9.8c5.8,0,10.4,4.7,10.4,10.5C83.5,26.1,78.8,30.7,73,30.7z"/>
		<circle fill="#FFFFFF" cx="23.6" cy="17.2" r="6.4"/>
		<path fill="#FFFFFF" d="M3.4,51.8c-1.8,0.1-3.4-1.4-3.4-3.2c0,0,0-0.1,0-0.1l0,0c0-1.9,1.5-3.4,3.3-3.4c0,0,0.1,0,0.1,0
			c1.8-0.1,3.4,1.4,3.4,3.2c0,0,0,0.1,0,0.1l0,0c0,1.9-1.5,3.4-3.3,3.4C3.5,51.9,3.5,51.9,3.4,51.8z M5.4,48.5c0-1.1-0.9-2-2-2
			c-1.1,0-1.9,0.9-2,1.9c0,0,0,0,0,0.1l0,0c0,1.1,0.9,2,2,2C4.6,50.5,5.4,49.6,5.4,48.5C5.4,48.5,5.4,48.5,5.4,48.5L5.4,48.5z"/>
		<path fill="#FFFFFF" d="M10.9,51.8C9.5,52,8.2,51,8.1,49.5c0-0.2,0-0.4,0-0.5v-3.8h1.4v3.7c0,1.1,0.5,1.6,1.4,1.6s1.4-0.5,1.4-1.5
			v-3.7h1.4v3.7c0.2,1.4-0.8,2.7-2.3,2.9C11.3,51.9,11.1,51.9,10.9,51.8z"/>
		<path fill="#FFFFFF" d="M19.7,51.7l-3.1-4.1v4.1h-1.4v-6.5h1.3l3,4v-4h1.4v6.5L19.7,51.7z"/>
		<path fill="#FFFFFF" d="M25.3,51.7v-6.5h4.9v1.3h-3.5v1.3h3.1v1.3h-3.1v1.4h3.5v1.3H25.3z"/>
		<path fill="#FFFFFF" d="M35.5,51.7l-1.5-2.2l-1.5,2.2H31l2.3-3.3l-2.2-3.2h1.7l1.4,2.1l1.4-2.1h1.6l-2.2,3.2l2.3,3.3L35.5,51.7z"
			/>
		<path fill="#FFFFFF" d="M40.8,49.8h-1.1v2h-1.4v-6.5h2.7c1.2-0.1,2.3,0.7,2.5,1.9c0,0.1,0,0.2,0,0.3l0,0
			C43.4,49,42.2,49.8,40.8,49.8z M41.9,47.5c0-0.6-0.4-1-1.2-1h-1.1v2h1.1c0.5,0.1,1-0.3,1.1-0.9C41.9,47.6,41.9,47.6,41.9,47.5z"/>
		<path fill="#FFFFFF" d="M48.4,51.7L47,49.7h-1.1v2.1h-1.4v-6.5h3c1.5,0,2.5,0.8,2.5,2.1l0,0c0,0.9-0.5,1.7-1.4,2l1.6,2.3
			L48.4,51.7z M48.4,47.5c0-0.6-0.4-0.9-1.1-0.9h-1.4v1.9h1.5C48,48.4,48.4,48,48.4,47.5L48.4,47.5z"/>
		<path fill="#FFFFFF" d="M51.1,51.7v-6.5H56v1.3h-3.4v1.3h3.1v1.3h-3.1v1.4h3.5v1.3H51.1z"/>
		<path fill="#FFFFFF" d="M59.7,51.8c-1,0-2-0.3-2.8-1l0.8-1c0.5,0.5,1.2,0.8,1.9,0.8c0.6,0,0.9-0.2,0.9-0.6l0,0
			c0-0.4-0.2-0.5-1.3-0.8c-1.3-0.3-2.2-0.7-2.2-2l0,0c0-1.1,0.9-2,2-2c0.1,0,0.2,0,0.3,0c0.9,0,1.7,0.3,2.4,0.8l-0.7,1.1
			c-0.5-0.4-1.1-0.6-1.7-0.6c-0.5,0-0.8,0.2-0.8,0.6l0,0c0,0.4,0.3,0.6,1.4,0.9c1.3,0.3,2.1,0.8,2.1,1.9l0,0
			C62,51.1,61.1,51.8,59.7,51.8z"/>
		<path fill="#FFFFFF" d="M65.5,51.8c-1,0-2-0.3-2.8-1l0.8-1c0.5,0.5,1.2,0.8,1.9,0.8c0.6,0,0.9-0.2,0.9-0.6l0,0
			c0-0.4-0.2-0.5-1.3-0.8c-1.3-0.3-2.2-0.7-2.2-2l0,0c0-1.1,0.9-2,2-2c0.1,0,0.2,0,0.3,0c0.9,0,1.7,0.3,2.4,0.8l-0.7,1.1
			c-0.5-0.4-1.1-0.6-1.7-0.6c-0.5,0-0.8,0.2-0.8,0.6l0,0c0,0.4,0.3,0.6,1.4,0.9c1.3,0.3,2.1,0.8,2.1,1.9l0,0
			C67.9,51.1,66.9,51.8,65.5,51.8z"/>
	</g>
</g>
</svg>
