<svg xmlns="http://www.w3.org/2000/svg" xmlns:xlink="http://www.w3.org/1999/xlink" viewBox="0 0 767.96 450"><defs><style>.cls-1{fill:none;}.cls-2{clip-path:url(#clip-path);}.cls-3{fill:url(#linear-gradient);}.cls-4{fill:#5684c4;}.cls-5{fill:#1a4755;}.cls-6{fill:#194655;}.cls-7{fill:#8cb0dd;}.cls-8{fill:#6893cd;}.cls-9{fill:#f79c8d;}.cls-10{fill:#0f2f36;}.cls-11{fill:#f8a491;}.cls-12{fill:#e5b15b;}.cls-13{fill:#f8cc7f;}.cls-14{fill:#f2e9da;}.cls-15{fill:#fff;}.cls-16{fill:#f8a592;}.cls-17{fill:#f37559;opacity:0.2;}.cls-17,.cls-22,.cls-32{isolation:isolate;}.cls-18,.cls-22{fill:#ed9b8f;}.cls-19,.cls-32{fill:#f37458;}.cls-20{fill:#efefb4;}.cls-21{fill:#ab6e67;}.cls-22{opacity:0.6;}.cls-23{fill:#3c8f7c;}.cls-24{fill:#fcf0d1;}.cls-25{fill:#476eb5;}.cls-26{fill:#1a1a1a;}.cls-27{fill:#f58d80;}.cls-28{fill:#52c0a6;}.cls-29{fill:#98d5c7;}.cls-30{fill:#13375b;}.cls-31{fill:#12355a;}.cls-32{opacity:0.5;}.cls-33{fill:#9e9da2;}.cls-34{fill:#d8d9dd;}</style><clipPath id="clip-path" transform="translate(8.63 106.47)"><rect class="cls-1" width="756.01" height="269.65"/></clipPath><linearGradient id="linear-gradient" x1="375.35" y1="331.43" x2="375.35" y2="-118.57" gradientTransform="matrix(1, 0, 0, -1, 8.63, 331.43)" gradientUnits="userSpaceOnUse"><stop offset="0.1" stop-color="#2fa2c9"/><stop offset="0.17" stop-color="#36a5cb"/><stop offset="0.27" stop-color="#4aaed0"/><stop offset="0.39" stop-color="#6abdd8"/><stop offset="0.52" stop-color="#97d1e4"/><stop offset="0.67" stop-color="#d0eaf3"/><stop offset="0.78" stop-color="#fff"/></linearGradient></defs><title>ic_step2_background</title><g id="Layer_2" data-name="Layer 2"><g id="Layer_1-2" data-name="Layer 1"><g id="Layer_2-2" data-name="Layer 2"><g id="Layer_1-2-2" data-name="Layer 1-2"><g class="cls-2"><rect class="cls-3" width="767.96" height="450"/><path class="cls-4" d="M106.36,262.26H643.64a1.41,1.41,0,0,0,1.42-1.4v0h0a1.43,1.43,0,0,0-1.42-1.42H106.36a1.43,1.43,0,0,0-1.42,1.42h0a1.41,1.41,0,0,0,1.4,1.42Z" transform="translate(8.63 106.47)"/><rect class="cls-5" x="107.55" y="239.08" width="40.42" height="1.76" transform="translate(-123.16 427.28) rotate(-79.27)"/><polygon class="cls-5" points="213.77 366.45 215.85 366.45 208.08 326.22 206.35 326.55 213.77 366.45"/><polygon class="cls-5" points="152.91 366.45 154.99 366.45 147.22 326.22 145.49 326.55 152.91 366.45"/><polygon class="cls-6" points="194.77 366.45 193.08 366.47 200.53 326.4 202.26 326.73 194.77 366.45"/><path class="cls-7" d="M156.15,132.56c-9.26,1-21.23,2-33.26,22.43-13.14,22.3-6.22,55.61,4.15,64.87s44.25,20.68,72.72,3.57c0,0,17.19-10.37,8.37-27.57-13.58-26.49-11.66-32-17.73-42.38S175.79,130.45,156.15,132.56Z" transform="translate(8.63 106.47)"/><path class="cls-8" d="M122.89,155c8.21-13.92,16.39-18.83,23.71-20.85A61.06,61.06,0,0,0,138,145.7c-13.14,22.3-6.22,55.6,4.15,64.86,9.2,8.21,36.87,18.12,62.88,8.33a26.42,26.42,0,0,1-5.3,4.54c-28.47,17.11-62.35,5.68-72.72-3.57S109.75,177.29,122.89,155Z" transform="translate(8.63 106.47)"/><polygon class="cls-9" points="194.48 272.92 196.86 280.06 189.61 277.2 194.48 272.92"/><path class="cls-10" d="M178.38,145.21c.49,0,1.81.47,3.75,4.11,2.47,4.66,6.08,18.73,6.08,18.73l-10.78,4L176,169.12l-2.28-22.61S178.25,145.21,178.38,145.21Z" transform="translate(8.63 106.47)"/><path class="cls-5" d="M164.12,143.19a65.45,65.45,0,0,1,14.26,2S181,167.51,176,184.45c-1.11,3.79.92,15.72.92,15.72l-32-.42s3.79-28.84,2.36-33.49-1.46-20.89-1.46-20.89l7.18-1.24A71.42,71.42,0,0,1,164.12,143.19Z" transform="translate(8.63 106.47)"/><path class="cls-11" d="M159.38,242.67s.71,8.14,2,10.39-.07,6.08-.14,6.61-2.74,1.28-7,.83-4.18-1.43-3.83-3,2.6-3.6,2.73-5.1-1.3-6.91-1.3-6.91Z" transform="translate(8.63 106.47)"/><path class="cls-12" d="M173.35,193.45s22.07-1.22,27,1.76-.89,9.08-.89,9.08-18,7.78-48,9.51c-7.12.41-7.73-18.5-6.4-20.07S173.35,193.45,173.35,193.45Z" transform="translate(8.63 106.47)"/><path class="cls-5" d="M153.74,261.13c-4.37-.47-3.83-2.61-3.48-4.23.22-1,1.48-2.21,2.22-3.35a7.47,7.47,0,0,0,2.93,1.42c2,.58,4.67-.57,6.39-1.29a20.86,20.86,0,0,1,.58,5.62C162.31,259.84,158.11,261.59,153.74,261.13Z" transform="translate(8.63 106.47)"/><path class="cls-13" d="M157.17,209.19c.88,6.65,5.25,39.74,5.25,39.74l-10.13,1.26S139.83,207,140.47,200.38s5.3-7.17,5.3-7.17S154.84,191.59,157.17,209.19Z" transform="translate(8.63 106.47)"/><path class="cls-11" d="M145.54,147.84c3-1.11,4.45,25.72,4.86,36.77a129.17,129.17,0,0,0,16.81-.17c1.08-.08,3.57-1,4.65-1.13a10.61,10.61,0,0,1,2.64-.12,49.59,49.59,0,0,1,6.18,2.77c.59.62,2.17,2.16,1.91,2.83s-3.05-1.86-3.05-1.86l-1.35-.76c1.68,1.64,4.91,3.81,4.44,4.6s-3.36-1.43-5.43-2.93c1.78,1.6,4,4.46,3.48,4.91s-3-2.91-5.65-3.87c-1-.35-2,.63-2.77.75a5.85,5.85,0,0,1-2,.11l-2.9-.82c-1,.09-1,.67-2,.88-1.16.25-3.06.51-4.54.87-8.5,2.07-11.34,3-14,3C138.94,193.69,138.48,150.48,145.54,147.84Z" transform="translate(8.63 106.47)"/><path class="cls-5" d="M139.87,173c-.56-11.32-.48-25.26,5.89-27.64,2.51-.94,6.93,4.7,6.14,27.87C148.5,173.55,143.51,173.77,139.87,173Z" transform="translate(8.63 106.47)"/><path class="cls-11" d="M190,248.5s-.89,2.83.69,4.69,8.16,3.7,9,4.72a2.79,2.79,0,0,1,.79,1.87L182,259.27l.2-5.55.85-4Z" transform="translate(8.63 106.47)"/><path class="cls-5" d="M191.86,254.13s-4.74,1.91-7,.78-2.22-1.45-2.88-1-1,6.09-1,6.09l20.76.14c1.44,0,2.17-1.09,1-2a17.68,17.68,0,0,0-2.26-1.34C198.91,255.85,191.86,254.13,191.86,254.13Z" transform="translate(8.63 106.47)"/><path class="cls-13" d="M189.32,198.67c1.42-3,4.67-6.89,10.38-4.54,5.44,2.23,6.9,7.73,5.18,13.36s-13,38.74-13.42,43.29l-9,.06s1.64-26.21,2-32.55A61,61,0,0,1,189.32,198.67Z" transform="translate(8.63 106.47)"/><path class="cls-14" d="M204,168.18H173.79A2,2,0,0,0,172,169.4l-9.29,22.67H146a.83.83,0,0,0-.84.82v0h0a.85.85,0,0,0,.84.84h47.4a3.31,3.31,0,0,0,3-1.95l9.37-20.8a2,2,0,0,0-1-2.64A2.06,2.06,0,0,0,204,168.18Z" transform="translate(8.63 106.47)"/><path class="cls-15" d="M187.72,181.38a1.66,1.66,0,1,1-1.24-2.17A1.78,1.78,0,0,1,187.72,181.38Z" transform="translate(8.63 106.47)"/><path class="cls-16" d="M160.46,133.63,159,143.36S164.37,155,167.59,154c2.7-.85,1-11.1,1-11.1s-1.47-5.51-1-8.26S160.46,133.63,160.46,133.63Z" transform="translate(8.63 106.47)"/><path class="cls-17" d="M167.6,134.59c.44-2.76-7.14-1-7.14-1l-.13.81a4.28,4.28,0,0,0,.83,1.35,10,10,0,0,0,6.63,3A14.88,14.88,0,0,1,167.6,134.59Z" transform="translate(8.63 106.47)"/><path class="cls-16" d="M159.21,119.86c-.21-.08-1.72,11.09,1.14,14.16s8.41,4.07,10.41,1.65c2.2-2.67,2.09-14.67-2.35-17.83S159.21,119.86,159.21,119.86Z" transform="translate(8.63 106.47)"/><path class="cls-5" d="M166.73,111.87a12.26,12.26,0,0,0-6.47,3.69c-1.56.18-3.68,1-5.86,4.66a9,9,0,0,0,2.42,11.8c3.13,2.42,3.09,5.22,3.09,5.22l.49-1.45a7.85,7.85,0,0,0,.39-3.4,6.6,6.6,0,0,0-.5-2c-.75-1.62,1.62-2.69,2.28-4,.51-1,.54-3.41,1.34-5.12l1-1.3s2.22-1.73,4.4-1.24S171.13,111,166.73,111.87Z" transform="translate(8.63 106.47)"/><path class="cls-16" d="M162.42,128.29c0,1.37-.59,2.48-1.38,2.49s-1.44-1.08-1.46-2.44.59-2.47,1.38-2.49S162.4,126.93,162.42,128.29Z" transform="translate(8.63 106.47)"/><path class="cls-15" d="M166.28,132.07l4.3-.22a1.88,1.88,0,0,1-1.9,1.79C166.37,133.82,166.28,132.07,166.28,132.07Z" transform="translate(8.63 106.47)"/><rect class="cls-6" x="472.07" y="182.51" width="2.01" height="183.54"/><rect class="cls-18" x="470.35" y="279.08" width="37.92" height="29.79"/><rect class="cls-19" x="494.86" y="279.08" width="13.42" height="29.79"/><rect class="cls-20" x="478.95" y="279.09" width="8.1" height="3.96"/><rect class="cls-18" x="500.18" y="279.08" width="37.92" height="29.79"/><rect class="cls-19" x="524.69" y="279.08" width="13.42" height="29.79"/><rect class="cls-20" x="508.78" y="279.09" width="8.1" height="3.96"/><rect class="cls-13" x="479.56" y="249.29" width="44.02" height="29.79"/><rect class="cls-19" x="508" y="249.29" width="15.57" height="29.79"/><rect class="cls-20" x="489.53" y="249.29" width="9.4" height="3.97"/><rect class="cls-13" x="530.2" y="230.65" width="94.89" height="78.35"/><rect class="cls-21" x="575.99" y="230.65" width="1.94" height="78.35"/><rect class="cls-21" x="551.58" y="230.65" width="1.94" height="78.35"/><rect class="cls-21" x="530.2" y="256.9" width="94.89" height="1.56"/><rect class="cls-21" x="530.21" y="283.73" width="94.89" height="1.56"/><rect class="cls-22" x="599.58" y="230.65" width="25.52" height="78.35"/><rect class="cls-20" x="584.2" y="230.65" width="9.1" height="2.12"/><rect class="cls-20" x="559.21" y="230.65" width="9.1" height="2.12"/><rect class="cls-20" x="534.98" y="230.65" width="9.1" height="2.12"/><rect class="cls-20" x="584.2" y="258.46" width="9.1" height="2.12"/><rect class="cls-20" x="559.21" y="258.46" width="9.1" height="2.12"/><rect class="cls-20" x="534.98" y="258.46" width="9.1" height="2.12"/><rect class="cls-20" x="584.2" y="285.29" width="9.1" height="2.12"/><rect class="cls-20" x="559.21" y="285.29" width="9.1" height="2.12"/><rect class="cls-20" x="534.98" y="285.29" width="9.1" height="2.12"/><rect class="cls-5" x="436.77" y="308.87" width="193.92" height="6.08"/><rect class="cls-23" x="595.65" y="308.87" width="35.04" height="6.08"/><rect class="cls-6" x="437.03" y="182.51" width="2.01" height="183.54"/><rect class="cls-6" x="437.03" y="182.51" width="37.05" height="1.87"/><rect class="cls-18" x="480.13" y="157.21" width="73.41" height="59.77"/><rect class="cls-22" x="535.3" y="157.21" width="18.24" height="59.77"/><rect class="cls-20" x="502.81" y="157.21" width="7.32" height="17.57"/><rect class="cls-13" x="541.11" y="137.07" width="73.41" height="79.91"/><rect class="cls-22" x="596.28" y="137.07" width="18.24" height="79.91"/><rect class="cls-20" x="563.78" y="137.07" width="7.32" height="23.49"/><rect class="cls-13" x="460.48" y="187.2" width="37.92" height="29.79"/><rect class="cls-19" x="484.97" y="187.2" width="13.42" height="29.79"/><rect class="cls-20" x="469.06" y="187.19" width="8.1" height="3.97"/><rect class="cls-24" x="487.95" y="127.42" width="37.92" height="29.79"/><rect class="cls-19" x="512.44" y="127.42" width="13.42" height="29.79"/><rect class="cls-18" x="496.53" y="127.42" width="8.1" height="3.97"/><rect class="cls-6" x="594.65" y="182.51" width="37.05" height="1.87"/><rect class="cls-5" x="436.77" y="215.11" width="193.92" height="6.08"/><rect class="cls-23" x="595.65" y="215.11" width="35.04" height="6.08"/><rect class="cls-6" x="629.69" y="182.51" width="2.01" height="183.54"/><rect class="cls-6" x="594.64" y="182.51" width="2.01" height="183.54"/><path class="cls-25" d="M269.22,252.87l-3.38-.85,24.71-86.4L325.86,146a1.58,1.58,0,0,1,2.15.61h0a1.59,1.59,0,0,1-.62,2.16L293.25,167.7l-22,79.7Z" transform="translate(8.63 106.47)"/><path class="cls-26" d="M275.7,248a11.39,11.39,0,1,1-11.39-11.39h0A11.37,11.37,0,0,1,275.7,248Z" transform="translate(8.63 106.47)"/><path class="cls-27" d="M358.87,146.81c1.8-1,6.5-18.52,13.87-22.81,0,0,2.93-2,6.85,1.2s-12.36,26.84-16,28.85c-5.41,3-26.42-3.17-31.28-4.22l.53-3.5S357.28,147.69,358.87,146.81Z" transform="translate(8.63 106.47)"/><path class="cls-25" d="M365.63,129.58s-6.48,12.36-7.32,14.39c0,0,8.6,5.36,10.63,7.27,0,0,3.16-10.32,3.16-10.83S365.63,129.58,365.63,129.58Z" transform="translate(8.63 106.47)"/><path class="cls-27" d="M333.61,147.08l-1.65-.27-.42.44v.33l1.21.79s1.92-.76,1.92-.83A6.66,6.66,0,0,0,333.61,147.08Z" transform="translate(8.63 106.47)"/><path class="cls-11" d="M350.43,152.79l-1.65-.31-.42.44v.33l1.19.8s1.94-.72,1.94-.79A8.34,8.34,0,0,0,350.43,152.79Z" transform="translate(8.63 106.47)"/><polygon class="cls-25" points="357.28 259.72 335.5 252.33 333.36 254.26 355.66 261.84 357.28 259.72"/><path class="cls-27" d="M407.27,247.69s1.67,1.64,1.7,2.24.15,7-.53,7.62-2.68,1-2,1.7c.49.51,4.23.4,6.71.27.73,0,1.64-5.84,1.92-6.69.42-1.24,1.43-4,1.05-4.89a7.22,7.22,0,0,0-2.31-2.09,11.45,11.45,0,0,1-2.56-2.73Z" transform="translate(8.63 106.47)"/><path class="cls-16" d="M389.74,251.5s1.49,4.23,1.49,4.24a29.26,29.26,0,0,1,.55,2.94c0,2.3-10.3-1.94-8-3a2.43,2.43,0,0,0,.93-1.6,5.34,5.34,0,0,0-.87-2.71Z" transform="translate(8.63 106.47)"/><path class="cls-28" d="M373.57,172.63s-.75,7.6-.75,7.71c0,12.28-2.43,36.27-2,38.58,1.13,5.63,13.25,34.36,13.25,34.36l6.55-.78-8.53-34.4,3.14-13.85,4.44-27.37Z" transform="translate(8.63 106.47)"/><path class="cls-29" d="M395.17,170.46l1.63,16.08,3.37,29.62,12.81,29s-1.81,4.21-4.46,4.8l-20.39-29.72L375.85,175l.06-1.19Z" transform="translate(8.63 106.47)"/><path class="cls-30" d="M413.69,245.81s-3.85,10.87-5.36,11.4c-.4.14-2.32.49-2.68,1.34a3.51,3.51,0,0,0,0,1.12h8s1-4.79,1.41-6.9c0,0,2.13-5.14,1.89-5.61S413.69,245.81,413.69,245.81Z" transform="translate(8.63 106.47)"/><path class="cls-30" d="M392.37,259.44l-1.18-3.74a10.39,10.39,0,0,1-3.72.88c-1.24-.18-3.66-.88-3.66-.88-4.94,1.63-9,2.43-8.26,3.74Z" transform="translate(8.63 106.47)"/><path class="cls-4" d="M373.06,174.89l1.58-13.41s-10.21-19.62-10.06-29.69c.1-4.46,4.62-6.8,5.21-6.92,3-.64,9.92-4,14.87-.58,5.83,4.08,12.1,17.48,11.54,49.93C396.2,174.22,379.35,176.88,373.06,174.89Z" transform="translate(8.63 106.47)"/><path class="cls-11" d="M373.1,152.93c1.82-1-2.29-23.92,5.16-28.06,0,0,3-2,6.83,1.33s-2.15,34.63-5.81,36.57c-5.46,2.9-25.51-5.21-30.35-6.36l.76-4.39S371.49,153.78,373.1,152.93Z" transform="translate(8.63 106.47)"/><path class="cls-25" d="M373.1,147.63c-.19-8,.18-20,5.16-22.76,0,0,3-2,6.83,1.33,2.21,1.92,3.67,14.65,1.94,24.62C383.7,149,377,147.59,373.1,147.63Z" transform="translate(8.63 106.47)"/><path class="cls-11" d="M350.36,152.2s-3.28-2.62-4.3-2.62a8.4,8.4,0,0,0-2.82.34c-.33.22-2.49,4.18-1.92,4.76.35.35,2.15-2.88,2.15-2.88s-2.06,3.33-1.14,3.57c.52.13,2.34-3.23,2.34-3.23s-1.58,2.78-1.39,2.89c.49.29,1.46-.56,2.42-1.54.59-.6,3-.24,3-.24Z" transform="translate(8.63 106.47)"/><path class="cls-31" d="M369.58,99.5s2.84-3,5.12.64a2.28,2.28,0,0,1,3,.77s3.17-1,3.95,3.8c0,0,1.63-.31,1.85,1.63a4.82,4.82,0,0,1-.78,3.24,2.33,2.33,0,0,1,.51,2.47,2.22,2.22,0,0,1-1.62,1.75s-.33,2.56-1.44,3.33a3.61,3.61,0,0,1-2.63.41,1.71,1.71,0,0,1-1.69,1.26c-1.3-.12-2.9-1.36-4.35-.8s-5.21,0-5.21,0-4.23-1.88-3-6.2a3.16,3.16,0,0,1-.28-4.41s-1.42-3.76,1.39-6A7.31,7.31,0,0,1,369.58,99.5Z" transform="translate(8.63 106.47)"/><path class="cls-11" d="M370.06,119.8l-.52,3.81s-1.15,5.49.33,6.55,6.3-6.7,6.3-6.7l-.51-9.66Z" transform="translate(8.63 106.47)"/><path class="cls-19" d="M375.82,116.93a10.94,10.94,0,0,1-6.2,6.1l.44-3.23,5.6-6Z" transform="translate(8.63 106.47)"/><path class="cls-11" d="M372.24,103.66a5.09,5.09,0,0,0-6.45,3.2,4.32,4.32,0,0,0-.21.86,40,40,0,0,0-.42,4.89c-.08,4.45,2.23,8.78,4.25,8.78s7.6-2.88,7.8-9.2C377.34,108.29,375.39,104.75,372.24,103.66Z" transform="translate(8.63 106.47)"/><path class="cls-11" d="M375.72,112.69a1.48,1.48,0,1,0,1.46-1.78A1.65,1.65,0,0,0,375.72,112.69Z" transform="translate(8.63 106.47)"/><path class="cls-31" d="M363.48,101.45c-2.08,1.65-2.81,4.16-1.63,5.61s3.84,1.27,5.93-.38,2.81-4.16,1.63-5.61S365.57,99.79,363.48,101.45Z" transform="translate(8.63 106.47)"/><path class="cls-31" d="M368.94,102.8c0,.72.87,1.3,1.94,1.3s1.94-.58,1.94-1.3-.87-1.3-1.94-1.3S368.94,102.08,368.94,102.8Z" transform="translate(8.63 106.47)"/><path class="cls-31" d="M363.18,108.33a1.65,1.65,0,1,0,1.65-1.67,1.65,1.65,0,0,0-1.65,1.67Z" transform="translate(8.63 106.47)"/><rect class="cls-13" x="274.41" y="184.79" width="27.88" height="32" transform="matrix(0.26, -0.97, 0.97, 0.26, 29.04, 534.57)"/><rect class="cls-32" x="284.41" y="197.77" width="27.88" height="11.32" transform="translate(33.92 546.19) rotate(-75.16)"/><rect class="cls-20" x="284.44" y="184.32" width="3.71" height="6.84" transform="translate(40.13 522.87) rotate(-75.16)"/><rect class="cls-18" x="257.73" y="204.85" width="35.94" height="45.76" transform="translate(-7.02 541.54) rotate(-75)"/><rect class="cls-19" x="272.07" y="225.29" width="35.79" height="16.12" transform="matrix(0.26, -0.97, 0.97, 0.26, -1.23, 560.35)"/><rect class="cls-20" x="269.99" y="207.77" width="4.76" height="9.73" transform="matrix(0.26, -0.97, 0.97, 0.26, 5.7, 527.93)"/><rect class="cls-13" x="245.68" y="212.85" width="29.02" height="32.96" transform="matrix(0.26, -0.97, 0.97, 0.26, -19.5, 528.58)"/><rect class="cls-32" x="255.97" y="226.22" width="29.02" height="11.66" transform="translate(-14.48 540.55) rotate(-75.16)"/><rect class="cls-20" x="256.18" y="212.23" width="3.86" height="7.04" transform="translate(-7.92 516.47) rotate(-75.16)"/><path class="cls-27" d="M333.53,146.5s-3.33-2.5-4.35-2.5a8.38,8.38,0,0,0-2.81.39c-.33.22-2.41,4.23-1.83,4.8.36.34,2.1-2.93,2.1-2.93s-2,3.38-1.07,3.59c.52.12,2.27-3.27,2.27-3.27a16.31,16.31,0,0,0-1.34,2.91c.5.28,1.46-.58,2.4-1.58.58-.61,3-.29,3-.29Z" transform="translate(8.63 106.47)"/><polygon class="cls-25" points="249.41 345.42 248.56 349.33 302.28 363.46 303.19 359.35 249.41 345.42"/><path class="cls-25" d="M292.05,258.88l-3.07-.8,23.47-85,35.3-19.58a1.58,1.58,0,0,1,1.54,2.76L315.14,175.2Z" transform="translate(8.63 106.47)"/><path class="cls-26" d="M302.92,248a11.39,11.39,0,1,1-11.39-11.39h0A11.37,11.37,0,0,1,302.92,248Z" transform="translate(8.63 106.47)"/><path class="cls-33" d="M299.44,247.55a7.92,7.92,0,1,1-8.33-7.49H292A7.92,7.92,0,0,1,299.44,247.55Z" transform="translate(8.63 106.47)"/><path class="cls-34" d="M296.82,247.62a5.3,5.3,0,1,1-5.64-4.94,4.09,4.09,0,0,1,.7,0A5.3,5.3,0,0,1,296.82,247.62Z" transform="translate(8.63 106.47)"/><path class="cls-15" d="M371.15,116.22l-4.42-.36a2,2,0,0,0,1.91,1.93C371,118.05,371.15,116.22,371.15,116.22Z" transform="translate(8.63 106.47)"/></g></g></g></g></g></svg>