<?xml version="1.0" encoding="utf-8"?>
<!-- Generator: Adobe Illustrator 24.0.3, SVG Export Plug-In . SVG Version: 6.00 Build 0)  -->
<svg version="1.1" id="Layer_1" xmlns="http://www.w3.org/2000/svg" xmlns:xlink="http://www.w3.org/1999/xlink" x="0px" y="0px"
	 viewBox="0 0 768 450" enable-background="new 0 0 768 450" xml:space="preserve">
<title>ic_step3_background</title>
<g id="Layer_2_1_">
	<g id="Layer_1-2">
		<g id="Layer_2-2">
			<g id="Layer_1-2-2">
				<g>
					<defs>
						<rect id="SVGID_1_" x="8.6" y="106.5" width="756" height="269.6"/>
					</defs>
					<clipPath id="SVGID_2_">
						<use xlink:href="#SVGID_1_"  overflow="visible"/>
					</clipPath>
					<g clip-path="url(#SVGID_2_)">
						
							<linearGradient id="SVGID_3_" gradientUnits="userSpaceOnUse" x1="375.35" y1="5812.5698" x2="375.35" y2="6262.5698" gradientTransform="matrix(1 0 0 1 8.63 -5812.5698)">
							<stop  offset="0.1" style="stop-color:#2FA2C9"/>
							<stop  offset="0.17" style="stop-color:#36A5CB"/>
							<stop  offset="0.27" style="stop-color:#4AAED0"/>
							<stop  offset="0.39" style="stop-color:#6ABDD8"/>
							<stop  offset="0.52" style="stop-color:#97D1E4"/>
							<stop  offset="0.67" style="stop-color:#D0EAF3"/>
							<stop  offset="0.78" style="stop-color:#FFFFFF"/>
						</linearGradient>
						<rect fill="url(#SVGID_3_)" width="768" height="450"/>
						<path fill="#5684C4" d="M115,368.7h537.3c0.8,0,1.4-0.6,1.4-1.4c0,0,0,0,0,0l0,0l0,0c0-0.8-0.6-1.4-1.4-1.4H115
							c-0.8,0-1.4,0.6-1.4,1.4l0,0C113.6,368.1,114.2,368.7,115,368.7C115,368.8,115,368.8,115,368.7L115,368.7z"/>
						
							<rect x="116.2" y="345.5" transform="matrix(0.1862 -0.9825 0.9825 0.1862 -229.3752 415.9373)" fill="#1A4755" width="40.4" height="1.8"/>
						<polygon fill="#1A4755" points="213.8,366.5 215.9,366.5 208.1,326.2 206.4,326.5 						"/>
						<polygon fill="#1A4755" points="152.9,366.5 155,366.5 147.2,326.2 145.5,326.5 						"/>
						<polygon fill="#194655" points="194.8,366.5 193.1,366.5 200.5,326.4 202.3,326.7 						"/>
						<path fill="#8CB0DD" d="M164.8,239c-9.3,1-21.2,2-33.3,22.4c-13.1,22.3-6.2,55.6,4.1,64.9s44.3,20.7,72.7,3.6
							c0,0,17.2-10.4,8.4-27.6c-13.6-26.5-11.7-32-17.7-42.4S184.4,236.9,164.8,239z"/>
						<path fill="#6893CD" d="M131.5,261.5c8.2-13.9,16.4-18.8,23.7-20.9c-3.3,3.5-6.2,7.4-8.6,11.6c-13.1,22.3-6.2,55.6,4.1,64.9
							c9.2,8.2,36.9,18.1,62.9,8.3c-1.6,1.7-3.3,3.3-5.3,4.5c-28.5,17.1-62.3,5.7-72.7-3.6S118.4,283.8,131.5,261.5z"/>
						<polygon fill="#F79C8D" points="194.5,272.9 196.9,280.1 189.6,277.2 						"/>
						<path fill="#0F2F36" d="M187,251.7c0.5,0,1.8,0.5,3.8,4.1c2.5,4.7,6.1,18.7,6.1,18.7l-10.8,4l-1.4-2.9l-2.3-22.6
							C182.4,253,186.9,251.7,187,251.7z"/>
						<path fill="#1A4755" d="M172.8,249.7c4.8,0.1,9.6,0.8,14.3,2c0,0,2.6,22.3-2.4,39.3c-1.1,3.8,0.9,15.7,0.9,15.7l-32-0.4
							c0,0,3.8-28.8,2.4-33.5c-1.4-4.6-1.5-20.9-1.5-20.9l7.2-1.2C165.3,250,169,249.7,172.8,249.7z"/>
						<path fill="#F8A491" d="M168,349.1c0,0,0.7,8.1,2,10.4s-0.1,6.1-0.1,6.6s-2.7,1.3-7,0.8s-4.2-1.4-3.8-3s2.6-3.6,2.7-5.1
							s-1.3-6.9-1.3-6.9L168,349.1z"/>
						<path fill="#E5B15B" d="M182,299.9c0,0,22.1-1.2,27,1.8s-0.9,9.1-0.9,9.1s-18,7.8-48,9.5c-7.1,0.4-7.7-18.5-6.4-20.1
							S182,299.9,182,299.9z"/>
						<path fill="#1A4755" d="M162.4,367.6c-4.4-0.5-3.8-2.6-3.5-4.2c0.2-1,1.5-2.2,2.2-3.4c0.9,0.7,1.9,1.2,2.9,1.4
							c2,0.6,4.7-0.6,6.4-1.3c0.4,1.8,0.6,3.7,0.6,5.6C170.9,366.3,166.7,368.1,162.4,367.6z"/>
						<path fill="#F8CC7F" d="M165.8,315.7c0.9,6.6,5.2,39.7,5.2,39.7l-10.1,1.3c0,0-12.5-43.2-11.8-49.8s5.3-7.2,5.3-7.2
							S163.5,298.1,165.8,315.7z"/>
						<path fill="#F8A491" d="M154.2,254.3c3-1.1,4.4,25.7,4.9,36.8c5.6,0.3,11.2,0.3,16.8-0.2c1.1-0.1,3.6-1,4.6-1.1
							c0.9-0.1,1.8-0.2,2.6-0.1c2.1,0.8,4.2,1.7,6.2,2.8c0.6,0.6,2.2,2.2,1.9,2.8s-3.1-1.9-3.1-1.9l-1.4-0.8
							c1.7,1.6,4.9,3.8,4.4,4.6s-3.4-1.4-5.4-2.9c1.8,1.6,4,4.5,3.5,4.9s-3-2.9-5.6-3.9c-1-0.4-2,0.6-2.8,0.8
							c-0.7,0.2-1.3,0.2-2,0.1l-2.9-0.8c-1,0.1-1,0.7-2,0.9c-1.2,0.2-3.1,0.5-4.5,0.9c-8.5,2.1-11.3,3-14,3
							C147.6,300.2,147.1,257,154.2,254.3z"/>
						<path fill="#1A4755" d="M148.5,279.5c-0.6-11.3-0.5-25.3,5.9-27.6c2.5-0.9,6.9,4.7,6.1,27.9
							C157.1,280,152.1,280.2,148.5,279.5z"/>
						<path fill="#F8A491" d="M198.6,355c0,0-0.9,2.8,0.7,4.7s8.2,3.7,9,4.7c0.5,0.5,0.8,1.2,0.8,1.9l-18.5-0.5l0.2-5.5l0.9-4
							L198.6,355z"/>
						<path fill="#1A4755" d="M200.5,360.6c0,0-4.7,1.9-7,0.8s-2.2-1.5-2.9-1s-1,6.1-1,6.1l20.8,0.1c1.4,0,2.2-1.1,1-2
							c-0.7-0.5-1.5-1-2.3-1.3C207.5,362.3,200.5,360.6,200.5,360.6z"/>
						<path fill="#F8CC7F" d="M198,305.1c1.4-3,4.7-6.9,10.4-4.5c5.4,2.2,6.9,7.7,5.2,13.4s-13,38.7-13.4,43.3l-9,0.1
							c0,0,1.6-26.2,2-32.5C193.6,318,195.3,311.4,198,305.1z"/>
						<path fill="#F2E9DA" d="M212.6,274.6h-30.2c-0.8,0-1.5,0.5-1.8,1.2l-9.3,22.7h-16.7c-0.5,0-0.8,0.4-0.8,0.8c0,0,0,0,0,0l0,0
							l0,0c0,0.5,0.4,0.8,0.8,0.8H202c1.3,0,2.5-0.8,3-2l9.4-20.8c0.5-1,0-2.2-1-2.6C213.2,274.7,212.9,274.7,212.6,274.6z"/>
						<path fill="#FFFFFF" d="M196.4,287.9c-0.3,0.9-1.2,1.3-2.1,1c-0.9-0.3-1.3-1.2-1-2.1c0.3-0.8,1.1-1.2,1.9-1.1
							C196,285.9,196.6,286.9,196.4,287.9z"/>
						<path fill="#F8A592" d="M169.1,240.1l-1.5,9.7c0,0,5.4,11.6,8.6,10.6c2.7-0.9,1-11.1,1-11.1s-1.5-5.5-1-8.3
							S169.1,240.1,169.1,240.1z"/>
						<path opacity="0.2" fill="#F37559" enable-background="new    " d="M176.2,241.1c0.4-2.8-7.1-1-7.1-1l-0.1,0.8
							c0.2,0.5,0.5,1,0.8,1.4c1.8,1.8,4.1,2.9,6.6,3C176.2,243.8,176.1,242.4,176.2,241.1z"/>
						<path fill="#F8A592" d="M167.8,226.3c-0.2-0.1-1.7,11.1,1.1,14.2s8.4,4.1,10.4,1.6c2.2-2.7,2.1-14.7-2.4-17.8
							S167.8,226.3,167.8,226.3z"/>
						<path fill="#1A4755" d="M175.4,218.3c-2.5,0.5-4.7,1.8-6.5,3.7c-1.6,0.2-3.7,1-5.9,4.7c-2.3,4-1.3,9.1,2.4,11.8
							c3.1,2.4,3.1,5.2,3.1,5.2l0.5-1.4c0.4-1.1,0.5-2.3,0.4-3.4c-0.1-0.7-0.2-1.4-0.5-2c-0.8-1.6,1.6-2.7,2.3-4
							c0.5-1,0.5-3.4,1.3-5.1l1-1.3c0,0,2.2-1.7,4.4-1.2S179.8,217.5,175.4,218.3z"/>
						<path fill="#F8A592" d="M171.1,234.8c0,1.4-0.6,2.5-1.4,2.5s-1.4-1.1-1.5-2.4s0.6-2.5,1.4-2.5
							C170.4,232.3,171,233.4,171.1,234.8z"/>
						<path fill="#FFFFFF" d="M174.9,238.5l4.3-0.2c0,1-0.9,1.8-1.9,1.8C175,240.3,174.9,238.5,174.9,238.5z"/>
						<rect x="472.1" y="182.5" fill="#194655" width="2" height="183.5"/>
						<rect x="470.4" y="279.1" fill="#ED9B8F" width="37.9" height="29.8"/>
						<rect x="494.9" y="279.1" fill="#F37458" width="13.4" height="29.8"/>
						<rect x="479" y="279.1" fill="#EFEFB4" width="8.1" height="4"/>
						<rect x="500.2" y="279.1" fill="#ED9B8F" width="37.9" height="29.8"/>
						<rect x="524.7" y="279.1" fill="#F37458" width="13.4" height="29.8"/>
						<rect x="508.8" y="279.1" fill="#EFEFB4" width="8.1" height="4"/>
						<rect x="479.6" y="249.3" fill="#F8CC7F" width="44" height="29.8"/>
						<rect x="508" y="249.3" fill="#F37458" width="15.6" height="29.8"/>
						<rect x="489.5" y="249.3" fill="#EFEFB4" width="9.4" height="4"/>
						<rect x="530.2" y="230.6" fill="#F8CC7F" width="94.9" height="78.4"/>
						<rect x="576" y="230.6" fill="#AB6E67" width="1.9" height="78.4"/>
						<rect x="551.6" y="230.6" fill="#AB6E67" width="1.9" height="78.4"/>
						<rect x="530.2" y="256.9" fill="#AB6E67" width="94.9" height="1.6"/>
						<rect x="530.2" y="283.7" fill="#AB6E67" width="94.9" height="1.6"/>
						<rect x="599.6" y="230.6" opacity="0.6" fill="#ED9B8F" enable-background="new    " width="25.5" height="78.4"/>
						<rect x="584.2" y="230.6" fill="#EFEFB4" width="9.1" height="2.1"/>
						<rect x="559.2" y="230.6" fill="#EFEFB4" width="9.1" height="2.1"/>
						<rect x="535" y="230.6" fill="#EFEFB4" width="9.1" height="2.1"/>
						<rect x="584.2" y="258.5" fill="#EFEFB4" width="9.1" height="2.1"/>
						<rect x="559.2" y="258.5" fill="#EFEFB4" width="9.1" height="2.1"/>
						<rect x="535" y="258.5" fill="#EFEFB4" width="9.1" height="2.1"/>
						<rect x="584.2" y="285.3" fill="#EFEFB4" width="9.1" height="2.1"/>
						<rect x="559.2" y="285.3" fill="#EFEFB4" width="9.1" height="2.1"/>
						<rect x="535" y="285.3" fill="#EFEFB4" width="9.1" height="2.1"/>
						<rect x="436.8" y="308.9" fill="#1A4755" width="193.9" height="6.1"/>
						<rect x="595.7" y="308.9" fill="#3C8F7C" width="35" height="6.1"/>
						<rect x="437" y="182.5" fill="#194655" width="2" height="183.5"/>
						<rect x="437" y="182.5" fill="#194655" width="37" height="1.9"/>
						<rect x="480.1" y="157.2" fill="#ED9B8F" width="73.4" height="59.8"/>
						<rect x="535.3" y="157.2" opacity="0.6" fill="#ED9B8F" enable-background="new    " width="18.2" height="59.8"/>
						<rect x="502.8" y="157.2" fill="#EFEFB4" width="7.3" height="17.6"/>
						<rect x="541.1" y="137.1" fill="#F8CC7F" width="73.4" height="79.9"/>
						<rect x="596.3" y="137.1" opacity="0.6" fill="#ED9B8F" enable-background="new    " width="18.2" height="79.9"/>
						<rect x="563.8" y="137.1" fill="#EFEFB4" width="7.3" height="23.5"/>
						<rect x="460.5" y="187.2" fill="#F8CC7F" width="37.9" height="29.8"/>
						<rect x="485" y="187.2" fill="#F37458" width="13.4" height="29.8"/>
						<rect x="469.1" y="187.2" fill="#EFEFB4" width="8.1" height="4"/>
						<rect x="488" y="127.4" fill="#FCF0D1" width="37.9" height="29.8"/>
						<rect x="512.4" y="127.4" fill="#F37458" width="13.4" height="29.8"/>
						<rect x="496.5" y="127.4" fill="#ED9B8F" width="8.1" height="4"/>
						<rect x="594.7" y="182.5" fill="#194655" width="37" height="1.9"/>
						<rect x="436.8" y="215.1" fill="#1A4755" width="193.9" height="6.1"/>
						<rect x="595.7" y="215.1" fill="#3C8F7C" width="35" height="6.1"/>
						<rect x="629.7" y="182.5" fill="#194655" width="2" height="183.5"/>
						<rect x="594.6" y="182.5" fill="#194655" width="2" height="183.5"/>
						<path fill="#476EB5" d="M277.9,359.3l-3.4-0.9l24.7-86.4l35.3-19.6c0.8-0.4,1.7-0.2,2.1,0.6c0,0,0,0,0,0l0,0
							c0.4,0.8,0.1,1.7-0.6,2.2l-34.1,18.9l-22,79.7L277.9,359.3z"/>
						<path fill="#1A1A1A" d="M284.3,354.5c0,6.3-5.1,11.4-11.4,11.4c-6.3,0-11.4-5.1-11.4-11.4c0-6.3,5.1-11.4,11.4-11.4l0,0
							C279.2,343.1,284.3,348.2,284.3,354.5C284.3,354.4,284.3,354.5,284.3,354.5z"/>
						<path fill="#F58D80" d="M367.5,253.3c1.8-1,6.5-18.5,13.9-22.8c0,0,2.9-2,6.9,1.2s-12.4,26.8-16,28.9
							c-5.4,3-26.4-3.2-31.3-4.2l0.5-3.5C341.5,252.8,365.9,254.2,367.5,253.3z"/>
						<path fill="#476EB5" d="M374.3,236.1c0,0-6.5,12.4-7.3,14.4c0,0,8.6,5.4,10.6,7.3c0,0,3.2-10.3,3.2-10.8
							S374.3,236.1,374.3,236.1z"/>
						<path fill="#F58D80" d="M342.2,253.6l-1.6-0.3l-0.4,0.4v0.3l1.2,0.8c0,0,1.9-0.8,1.9-0.8C343,253.8,342.6,253.7,342.2,253.6z"
							/>
						<path fill="#F8A491" d="M359.1,259.3l-1.6-0.3l-0.4,0.4v0.3l1.2,0.8c0,0,1.9-0.7,1.9-0.8C359.8,259.5,359.4,259.4,359.1,259.3
							z"/>
						<polygon fill="#476EB5" points="357.3,259.7 335.5,252.3 333.4,254.3 355.7,261.8 						"/>
						<path fill="#F58D80" d="M415.9,354.2c0,0,1.7,1.6,1.7,2.2c0,0.6,0.1,7-0.5,7.6s-2.7,1-2,1.7c0.5,0.5,4.2,0.4,6.7,0.3
							c0.7,0,1.6-5.8,1.9-6.7c0.4-1.2,1.4-4,1-4.9c-0.6-0.9-1.4-1.6-2.3-2.1c-1-0.8-1.9-1.7-2.6-2.7L415.9,354.2z"/>
						<path fill="#F8A592" d="M398.4,358c0,0,1.5,4.2,1.5,4.2c0.2,1,0.4,2,0.5,2.9c0,2.3-10.3-1.9-8-3c0.5-0.4,0.8-1,0.9-1.6
							c0-1-0.3-1.9-0.9-2.7L398.4,358z"/>
						<path fill="#52C0A6" d="M382.2,279.1c0,0-0.8,7.6-0.8,7.7c0,12.3-2.4,36.3-2,38.6c1.1,5.6,13.2,34.4,13.2,34.4l6.5-0.8
							l-8.5-34.4l3.1-13.9l4.4-27.4L382.2,279.1z"/>
						<path fill="#98D5C7" d="M403.8,276.9l1.6,16.1l3.4,29.6l12.8,29c0,0-1.8,4.2-4.5,4.8l-20.4-29.7l-12.3-45.2l0.1-1.2
							L403.8,276.9z"/>
						<path fill="#13375B" d="M422.3,352.3c0,0-3.9,10.9-5.4,11.4c-0.4,0.1-2.3,0.5-2.7,1.3c-0.1,0.4-0.1,0.7,0,1.1h8
							c0,0,1-4.8,1.4-6.9c0,0,2.1-5.1,1.9-5.6C425.3,353.2,422.3,352.3,422.3,352.3z"/>
						<path fill="#13375B" d="M401,365.9l-1.2-3.7c-1.2,0.5-2.4,0.8-3.7,0.9c-1.2-0.2-3.7-0.9-3.7-0.9c-4.9,1.6-9,2.4-8.3,3.7
							L401,365.9z"/>
						<path fill="#5684C4" d="M381.7,281.4l1.6-13.4c0,0-10.2-19.6-10.1-29.7c0.1-4.5,4.6-6.8,5.2-6.9c3-0.6,9.9-4,14.9-0.6
							c5.8,4.1,12.1,17.5,11.5,49.9C404.8,280.7,388,283.4,381.7,281.4z"/>
						<path fill="#F8A491" d="M381.7,259.4c1.8-1-2.3-23.9,5.2-28.1c0,0,3-2,6.8,1.3s-2.1,34.6-5.8,36.6c-5.5,2.9-25.5-5.2-30.4-6.4
							l0.8-4.4C358.3,258.5,380.1,260.2,381.7,259.4z"/>
						<path fill="#476EB5" d="M381.7,254.1c-0.2-8,0.2-20,5.2-22.8c0,0,3-2,6.8,1.3c2.2,1.9,3.7,14.6,1.9,24.6
							C392.3,255.5,385.6,254.1,381.7,254.1z"/>
						<path fill="#F8A491" d="M359,258.7c0,0-3.3-2.6-4.3-2.6c-1,0-1.9,0.1-2.8,0.3c-0.3,0.2-2.5,4.2-1.9,4.8
							c0.4,0.4,2.1-2.9,2.1-2.9s-2.1,3.3-1.1,3.6c0.5,0.1,2.3-3.2,2.3-3.2s-1.6,2.8-1.4,2.9c0.5,0.3,1.5-0.6,2.4-1.5
							c0.6-0.6,3-0.2,3-0.2L359,258.7z"/>
						<path fill="#12355A" d="M378.2,206c0,0,2.8-3,5.1,0.6c1-0.6,2.4-0.2,3,0.8c0,0,3.2-1,4,3.8c0,0,1.6-0.3,1.9,1.6
							c0.1,1.1-0.1,2.3-0.8,3.2c0.6,0.7,0.8,1.6,0.5,2.5c-0.2,0.8-0.8,1.5-1.6,1.8c0,0-0.3,2.6-1.4,3.3c-0.8,0.5-1.7,0.6-2.6,0.4
							c-0.2,0.8-0.9,1.3-1.7,1.3c-1.3-0.1-2.9-1.4-4.4-0.8s-5.2,0-5.2,0s-4.2-1.9-3-6.2c-1.3-1.1-1.4-3.1-0.3-4.4c0,0-1.4-3.8,1.4-6
							C374.4,206.6,376.3,205.9,378.2,206z"/>
						<path fill="#F8A491" d="M378.7,226.3l-0.5,3.8c0,0-1.1,5.5,0.3,6.6s6.3-6.7,6.3-6.7l-0.5-9.7L378.7,226.3z"/>
						<path fill="#F37458" d="M384.5,223.4c-1.1,2.8-3.4,5-6.2,6.1l0.4-3.2l5.6-6L384.5,223.4z"/>
						<path fill="#F8A491" d="M380.9,210.1c-2.7-0.9-5.6,0.5-6.4,3.2c0,0,0,0,0,0c-0.1,0.3-0.2,0.6-0.2,0.9
							c-0.2,1.6-0.4,3.3-0.4,4.9c-0.1,4.4,2.2,8.8,4.2,8.8s7.6-2.9,7.8-9.2C386,214.8,384,211.2,380.9,210.1z"/>
						<path fill="#F8A491" d="M384.4,219.2c0.2,0.8,0.9,1.3,1.7,1.1s1.3-0.9,1.1-1.7c-0.1-0.7-0.7-1.2-1.4-1.2
							C384.9,217.5,384.3,218.3,384.4,219.2z"/>
						<path fill="#12355A" d="M372.1,207.9c-2.1,1.7-2.8,4.2-1.6,5.6s3.8,1.3,5.9-0.4s2.8-4.2,1.6-5.6
							C376.9,206.1,374.2,206.3,372.1,207.9z"/>
						<path fill="#12355A" d="M377.6,209.3c0,0.7,0.9,1.3,1.9,1.3s1.9-0.6,1.9-1.3s-0.9-1.3-1.9-1.3S377.6,208.6,377.6,209.3z"/>
						<path fill="#12355A" d="M371.8,214.8c0,0.9,0.8,1.6,1.7,1.6c0.9,0,1.6-0.8,1.6-1.7c0-0.9-0.7-1.6-1.6-1.6
							C372.5,213.1,371.8,213.9,371.8,214.8C371.8,214.8,371.8,214.8,371.8,214.8z"/>
						
							<rect x="284.8" y="291" transform="matrix(0.2589 -0.9659 0.9659 0.2589 -75.1824 516.1634)" fill="#F8CC7F" width="28" height="32.1"/>
						
							<rect x="293" y="304.2" transform="matrix(0.2561 -0.9666 0.9666 0.2561 -71.2028 527.2627)" opacity="0.5" fill="#F37458" enable-background="new    " width="27.9" height="11.3"/>
						
							<rect x="293.1" y="290.8" transform="matrix(0.2561 -0.9666 0.9666 0.2561 -64.9998 503.952)" fill="#EFEFB4" width="3.7" height="6.8"/>
						
							<rect x="266.3" y="311.3" transform="matrix(0.2588 -0.9659 0.9659 0.2588 -112.0656 522.3034)" fill="#ED9B8F" width="35.9" height="45.8"/>
						
							<rect x="282.5" y="331.7" transform="matrix(0.2589 -0.9659 0.9659 0.2589 -105.4628 542.0558)" fill="#F37458" width="35.9" height="16.2"/>
						
							<rect x="280.4" y="314.1" transform="matrix(0.2589 -0.9659 0.9659 0.2589 -98.577 509.5529)" fill="#EFEFB4" width="4.8" height="9.8"/>
						
							<rect x="256" y="319.3" transform="matrix(0.2589 -0.9659 0.9659 0.2589 -123.8305 510.2497)" fill="#F8CC7F" width="29.1" height="33.1"/>
						
							<rect x="264.6" y="332.7" transform="matrix(0.2561 -0.9666 0.9666 0.2561 -119.6124 521.6174)" opacity="0.5" fill="#F37458" enable-background="new    " width="29" height="11.7"/>
						
							<rect x="264.8" y="318.7" transform="matrix(0.2561 -0.9666 0.9666 0.2561 -113.0563 497.542)" fill="#EFEFB4" width="3.9" height="7"/>
						<path fill="#F58D80" d="M342.2,253c0,0-3.3-2.5-4.4-2.5c-1,0-1.9,0.1-2.8,0.4c-0.3,0.2-2.4,4.2-1.8,4.8
							c0.4,0.3,2.1-2.9,2.1-2.9s-2,3.4-1.1,3.6c0.5,0.1,2.3-3.3,2.3-3.3c-0.5,0.9-1,1.9-1.3,2.9c0.5,0.3,1.5-0.6,2.4-1.6
							c0.6-0.6,3-0.3,3-0.3L342.2,253z"/>
						<polygon fill="#476EB5" points="249.4,345.4 248.6,349.3 302.3,363.5 303.2,359.4 						"/>
						<path fill="#476EB5" d="M300.7,365.4l-3.1-0.8l23.5-85l35.3-19.6c0.8-0.4,1.7-0.2,2.1,0.6s0.2,1.7-0.6,2.1l-34.1,18.9
							L300.7,365.4z"/>
						<path fill="#1A1A1A" d="M311.6,354.5c0,6.3-5.1,11.4-11.4,11.4c-6.3,0-11.4-5.1-11.4-11.4c0-6.3,5.1-11.4,11.4-11.4l0,0
							C306.4,343.1,311.5,348.2,311.6,354.5C311.6,354.4,311.6,354.5,311.6,354.5z"/>
						<path fill="#9E9DA2" d="M308.1,354c0.2,4.4-3.1,8.1-7.5,8.3c-4.4,0.2-8.1-3.1-8.3-7.5c-0.2-4.4,3.1-8.1,7.5-8.3h0.9
							C304.7,346.8,307.9,350,308.1,354z"/>
						<path fill="#D8D9DD" d="M305.5,354.1c0.2,2.9-2,5.4-4.9,5.6s-5.4-2-5.6-4.9c-0.2-2.9,2-5.4,4.9-5.6c0.2,0,0.5,0,0.7,0
							C303.2,349.3,305.3,351.4,305.5,354.1z"/>
						<path fill="#FFFFFF" d="M379.8,222.7l-4.4-0.4c0,1,0.9,1.9,1.9,1.9C379.6,224.5,379.8,222.7,379.8,222.7z"/>
					</g>
				</g>
			</g>
		</g>
	</g>
</g>
</svg>
