<?xml version="1.0" encoding="utf-8"?>
<!-- Generator: Adobe Illustrator 24.0.3, SVG Export Plug-In . SVG Version: 6.00 Build 0)  -->
<svg version="1.1" id="Layer_1" xmlns="http://www.w3.org/2000/svg" xmlns:xlink="http://www.w3.org/1999/xlink" x="0px" y="0px"
	 viewBox="0 0 173.3 173.3" style="enable-background:new 0 0 173.3 173.3;" xml:space="preserve">
<style type="text/css">
	.st0{fill:#D0DD28;}
	.st1{fill:#DB4744;}
	.st2{fill:#F39226;}
	.st3{fill:#E6E6E5;}
</style>
<title>Asset 4</title>
<g id="Layer_2_1_">
	<g id="Layer_1-2">
		<path class="st0" d="M173.3,86.7c0,47.9-38.8,86.7-86.7,86.7S0,134.5,0,86.7C0,38.8,38.8,0,86.7,0C134.5,0,173.3,38.8,173.3,86.7
			C173.3,86.7,173.3,86.7,173.3,86.7z"/>
		<path class="st1" d="M131,88.2c-0.2,0.9-1.1,1.3-2,1.1c0,0,0,0,0,0L100.6,83c-0.9-0.1-1.5-1-1.3-1.8l7.5-33.9
			c0.2-0.9,1.1-1.3,2-1.1c0,0,0,0,0,0l28.4,6.3c0.9,0.1,1.5,1,1.3,1.8L131,88.2z"/>
		<path class="st2" d="M110,91.1c0,0.9-1,1.7-2.3,1.7H67.4c-1.3,0-2.3-0.8-2.3-1.7V52.5c0-0.9,1-1.7,2.3-1.7h40.3
			c1.3,0,2.3,0.8,2.3,1.7V91.1z"/>
		<path class="st3" d="M144.9,56.7H56.4c-1.1,0.2-1.8,1.1-1.6,2.2c0.1,0.9,0.8,1.5,1.6,1.6h88.5c1.1-0.2,1.8-1.1,1.6-2.2
			C146.4,57.5,145.8,56.8,144.9,56.7z"/>
		<path class="st3" d="M139.4,72.1H60.7c-1.1,0.1-1.8,1.1-1.7,2.2c0.1,0.9,0.8,1.6,1.7,1.7h78.6c1.1-0.1,1.8-1.1,1.7-2.2
			C140.9,72.9,140.2,72.2,139.4,72.1z"/>
		<path class="st3" d="M133.5,87.5H64.2c-1.1,0.1-1.8,1.1-1.7,2.2c0.1,0.9,0.8,1.6,1.7,1.7h69.3c1.1-0.1,1.8-1.1,1.7-2.2
			C135,88.3,134.3,87.7,133.5,87.5L133.5,87.5z"/>
		<polygon class="st3" points="72.6,59.3 69.3,59.8 73.8,99.9 77.3,100.7 		"/>
		<polygon class="st3" points="86,59.5 82.6,59.8 85.1,101.1 88.6,100.4 		"/>
		<polygon class="st3" points="96,59 96,101.2 99.2,101.1 99.4,59 		"/>
		<polygon class="st3" points="111.5,58.8 105.2,101.7 108.8,100.2 114.8,59.5 		"/>
		<polygon class="st3" points="125.9,58.8 115.5,101.9 119.2,101.1 129.1,59.8 		"/>
		<polygon class="st3" points="140,58.1 126.2,99.9 129.5,101.5 143.1,59.5 		"/>
		<path class="st1" d="M136.6,97H69.1L55.5,53.2c-0.2,2.3-2.3,2.8-4.3,3.1L65,100.8c0.3,1.1,1.2,1.8,2.3,1.9h69.2
			c1.6-0.2,2.6-1.6,2.4-3.2C138.8,98.2,137.8,97.2,136.6,97L136.6,97z"/>
		<path class="st3" d="M54.8,51c-0.9-0.7-1.9-1.1-3.1-1.1H20.1c-2.2-0.2-4.1,1.3-4.4,3.5c-0.2,2.2,1.3,4.1,3.5,4.4
			c0.3,0,0.6,0,0.9,0h31.6c0.2,0,0.4,0,0.5,0c1.9-0.1,3.5-1.6,3.8-3.5c0-0.1,0-0.2,0-0.4C56.1,52.8,55.7,51.7,54.8,51z"/>
		<polygon class="st1" points="117.6,129.4 63.5,129.4 70,99.4 73.3,100.4 68,125.4 117.6,125.4 		"/>
		<circle class="st3" cx="66.3" cy="127.8" r="9.7"/>
		<path class="st2" d="M73.6,127.8c0,4-3.3,7.3-7.3,7.3s-7.3-3.3-7.3-7.3c0-4,3.3-7.3,7.3-7.3S73.6,123.7,73.6,127.8L73.6,127.8z"/>
		<path class="st3" d="M126.3,127.8c0,5.4-4.4,9.7-9.7,9.7s-9.7-4.4-9.7-9.7s4.4-9.7,9.7-9.7S126.3,122.4,126.3,127.8L126.3,127.8z"
			/>
		<path class="st2" d="M123.9,127.8c0,4-3.3,7.3-7.3,7.3s-7.3-3.3-7.3-7.3s3.3-7.3,7.3-7.3C120.6,120.5,123.9,123.7,123.9,127.8
			C123.9,127.7,123.9,127.7,123.9,127.8z"/>
	</g>
</g>
</svg>
