<?xml version="1.0" encoding="utf-8"?>
<!-- Generator: Adobe Illustrator 24.0.3, SVG Export Plug-In . SVG Version: 6.00 Build 0)  -->
<svg version="1.1" id="Layer_1" xmlns="http://www.w3.org/2000/svg" xmlns:xlink="http://www.w3.org/1999/xlink" x="0px" y="0px"
	 viewBox="0 0 173.3 173.3" style="enable-background:new 0 0 173.3 173.3;" xml:space="preserve">
<title>Asset 1</title>
<g id="Layer_2_1_">
	<g id="Layer_1-2">
		<path fill="#D0DD28" d="M173.3,86.7c0,47.9-38.8,86.7-86.7,86.7S0,134.5,0,86.7C0,38.8,38.8,0,86.7,0
			C134.5,0,173.3,38.8,173.3,86.7L173.3,86.7z"/>
		<path style="fill:#FDFCEC;" d="M75.3,186.7c0,5.2-3.9,9.5-8.6,9.5S58,192,58,186.7s3.9-9.5,8.6-9.5S75.3,181.5,75.3,186.7z"/>
		<path style="fill:#FDFCEC;" d="M210,186.1c0,5.4-3.9,9.8-8.8,9.8s-8.8-4.4-8.8-9.8s3.9-9.8,8.8-9.8S210,180.7,210,186.1z"/>
		<polygon style="fill:#00A4A1;" points="190.4,107.4 190.4,143.3 220.5,141.3 220.8,137.2 212.6,110.6 		"/>
		<rect x="224.2" y="164.6" style="fill:#F39226;" width="15.9" height="9.4"/>
		<path style="fill:#B06A17;" d="M169.1,86H49c-2.6,0-4.7,2.1-4.7,4.7l0,0v68.6c0,2.6,2.1,4.6,4.7,4.6h120.1c2.6,0,4.6-2.1,4.6-4.6
			V90.6C173.8,88.1,171.7,86,169.1,86z"/>
		<path style="fill:#58595B;" d="M200.1,166.9c-10.8,0-19.6,8.8-19.6,19.6s8.8,19.6,19.6,19.6s19.6-8.8,19.6-19.6c0,0,0,0,0,0
			C219.6,175.7,210.9,166.9,200.1,166.9C200.1,166.9,200.1,166.9,200.1,166.9z M204.1,190.8c-2.4,2.2-6.1,2-8.3-0.4
			c-1-1.1-1.5-2.5-1.5-3.9c0-0.4,0-0.7,0.1-1.1c0.6-3.2,3.6-5.3,6.8-4.7c2.4,0.4,4.3,2.3,4.7,4.7c0.1,0.3,0.1,0.7,0.1,1.1
			C205.9,188.1,205.2,189.7,204.1,190.8L204.1,190.8z"/>
		<path style="fill:#58595B;" d="M67.3,166.9L67.3,166.9c-10.9,0-19.6,8.8-19.6,19.6c0,10.8,8.8,19.5,19.6,19.5
			c10.8,0,19.5-8.8,19.5-19.6C86.8,175.7,78.1,167,67.3,166.9z M71.2,190.8c-2.4,2.2-6.1,2-8.3-0.4c-1-1.1-1.5-2.5-1.5-3.9
			c0-0.4,0-0.7,0.1-1.1c0.6-3.2,3.6-5.3,6.8-4.7c1.5,0.3,2.9,1.1,3.8,2.4c0.5,0.7,0.8,1.4,1,2.3c0.1,0.3,0.1,0.7,0.1,1.1
			C73.2,188.1,72.5,189.7,71.2,190.8L71.2,190.8z"/>
		<path style="fill:#F4F4F4;" d="M240.6,173c-0.1-8.9,0.2-17.8-0.2-26.7c-2.8-1.3-5.7-2.6-8.6-3.9c-2-0.9-4-1.9-6-2.9
			c-0.3-0.1-0.5-0.2-0.8-0.4c-4.1-2.2-3.9-7.7-5.5-11.5c-1.6-6.6-4.2-13-5.9-19.5c-1.1-4.2-1.5-8.5-1.3-12.8
			c-11.7-0.2-23.3-0.1-34.9,0h-0.1l0,0l-0.1-0.1v14.4h0.1c0,19-0.2,38.1,0,57.2H74.3c7,2.5,12.2,8.6,13.4,16v0.2h90
			c2.9-9.1,10-17.9,20.2-18.4c11.3-1.6,21.8,7,24.2,17.9c7.5,0.1,14.9,0.1,22.4,0.1c0-3.1,0.1-6.3,0.1-9.4L240.6,173z M192.9,138
			c-0.1-8.7-0.2-17.4,0.1-26c5.8,0,11.7-0.1,17.5,0.2c2.3,8.6,5.1,17.1,7.4,25.8C209.5,138,201.3,138,192.9,138z M239.6,173.7
			c-5.1,0.2-10.2,0.2-15.3,0.1c-0.1-3.1-0.1-6,0-9.1c5.1-0.1,10.1-0.1,15.2,0C239.7,167.7,239.7,170.7,239.6,173.7L239.6,173.7z"/>
		<path style="fill:#00A4A1;" d="M160.6,112.4c0,26.5-21.5,48.1-48.1,48.1s-48.1-21.5-48.1-48.1c0-26.5,21.5-48.1,48.1-48.1
			c0,0,0,0,0,0C139.1,64.3,160.6,85.8,160.6,112.4L160.6,112.4z"/>
		<path style="fill:#F9F6EC;" d="M74.7,112.4c0,20.9,17,37.9,37.9,37.9V74.5C91.6,74.5,74.7,91.5,74.7,112.4z"/>
		<path style="fill:#C5D8D2;" d="M112.6,74.5v75.8c20.9,0,37.9-17,37.9-37.9C150.4,91.5,133.5,74.5,112.6,74.5z"/>
		<path style="fill:#404E51;" d="M118.7,112.4c0,3.4-2.7,6.1-6.1,6.1s-6.1-2.7-6.1-6.1s2.7-6.1,6.1-6.1
			C115.9,106.3,118.7,109,118.7,112.4z"/>
		<path style="fill:#404E51;" d="M114.9,103.6c0,0.8-1,1.5-2.2,1.5l0,0c-1.2,0-2.2-0.7-2.2-1.5V81.3c0-0.8,1-1.5,2.2-1.5l0,0
			c1.2,0,2.2,0.7,2.2,1.5V103.6z"/>
		<path style="fill:#404E51;" d="M92.9,126.3c-1.3,0.6-2.9,0-3.5-1.3c0,0,0,0,0,0l0,0c-0.7-1.3-0.2-2.9,1.1-3.5c0,0,0,0,0,0
			l12.3-6.1c1.3-0.6,2.9,0,3.5,1.3c0,0,0,0,0,0l0,0c0.7,1.3,0.2,2.9-1.1,3.5L92.9,126.3z"/>
	</g>
</g>
</svg>
