<?xml version="1.0" encoding="utf-8"?>
<!-- Generator: Adobe Illustrator 24.0.3, SVG Export Plug-In . SVG Version: 6.00 Build 0)  -->
<svg version="1.1" id="Layer_1" xmlns="http://www.w3.org/2000/svg" xmlns:xlink="http://www.w3.org/1999/xlink" x="0px" y="0px"
	 viewBox="0 0 49.8 49.8" style="enable-background:new 0 0 49.8 49.8;" xml:space="preserve">
<style type="text/css">
	.st0{fill:#6D6E71;}
	.st1{fill:#FFFFFF;}
</style>
<title>ic_time</title>
<g id="Layer_2_1_">
	<g id="Layer_1-2">
		<circle class="st0" cx="24.9" cy="24.9" r="24.9"/>
		<path class="st1" d="M24.9,45.6c-11.4,0-20.7-9.3-20.7-20.7S13.5,4.2,24.9,4.2s20.7,9.3,20.7,20.7C45.6,36.3,36.3,45.6,24.9,45.6z
			 M24.9,6.8c-10,0-18.1,8.1-18.1,18.1S14.9,43,24.9,43c10,0,18.1-8.1,18.1-18.1C43,14.9,34.9,6.8,24.9,6.8z"/>
		<path class="st1" d="M33.9,36.1c-0.3,0-0.7-0.1-0.9-0.4l-9-9c-0.2-0.2-0.4-0.6-0.4-0.9V13.7c0-0.7,0.6-1.3,1.3-1.3
			c0.7,0,1.3,0.6,1.3,1.3c0,0,0,0,0,0v11.5l8.7,8.7c0.5,0.5,0.5,1.3,0,1.8C34.6,36,34.3,36.1,33.9,36.1z"/>
	</g>
</g>
</svg>
