<svg xmlns="http://www.w3.org/2000/svg" viewBox="0 0 190.72 131.81"><defs><style>.cls-1{fill:#fdfeff;}.cls-2{fill:#3e8258;}.cls-3{fill:#f2caaa;}</style></defs><title>moeny</title><g id="Layer_2" data-name="Layer 2"><g id="Layer_1-2" data-name="Layer 1"><path class="cls-1" d="M119.71,43.55l-1.4-3,1.91-.88,1.34,2.93a9.1,9.1,0,0,1,4.42-.75l.17,2.34a8,8,0,0,0-4.3.7c-2.32,1.07-2.37,2.78-1.79,4a2.68,2.68,0,0,0,1.88,1.57H143.4a18.62,18.62,0,0,0-37,0h11C116.28,48,117.18,45.26,119.71,43.55Z"/><path class="cls-1" d="M172,57.94a10.93,10.93,0,0,1,12.42-15.23l6.27,13.6.08,0L164.79,0l-.08,0,6.44,14A10.91,10.91,0,0,1,150.89,6.4L59.11,48.69l.81,1.77h0l-.81-1.76,13.81-6.37a10.8,10.8,0,0,1,4.91,5.1,10.56,10.56,0,0,1,.9,3h2.72A13.35,13.35,0,0,0,75.85,41L148,7.75a13.46,13.46,0,0,0,1.15,6.83,13.66,13.66,0,0,0,18.13,6.69,13.48,13.48,0,0,0,5.23-4.35L183,39.79a13.57,13.57,0,0,0-9.39,24.36l2.85-1.32A10.9,10.9,0,0,1,172,57.94Z"/><path class="cls-2" d="M77.83,47.43a10.8,10.8,0,0,0-4.91-5.1L59.11,48.7l.81,1.76H78.73A10.56,10.56,0,0,0,77.83,47.43Z"/><path class="cls-2" d="M151.57,13.45a10.93,10.93,0,0,0,19.58.57L164.71,0,150.89,6.4A10.91,10.91,0,0,0,151.57,13.45Z"/><path class="cls-2" d="M184.37,42.71a10.91,10.91,0,0,0-7.89,20.12l14.16-6.52Z"/><path class="cls-2" d="M169.5,59.06A13.61,13.61,0,0,1,183,39.79L172.48,16.92a13.48,13.48,0,0,1-5.23,4.35,13.66,13.66,0,0,1-18.13-6.69A13.46,13.46,0,0,1,148,7.75L75.85,41a13.35,13.35,0,0,1,5.6,9.48h24.94a18.62,18.62,0,0,1,37,0h18V69.79l12.25-5.64A13.52,13.52,0,0,1,169.5,59.06Z"/><path class="cls-2" d="M120.06,48.89c-.58-1.24-.53-3,1.79-4a8,8,0,0,1,4.3-.7L126,41.83a9.1,9.1,0,0,0-4.42.75l-1.34-2.93-1.91.88,1.4,3c-2.53,1.71-3.43,4.42-2.31,6.91h4.54A2.68,2.68,0,0,1,120.06,48.89Z"/><path class="cls-1" d="M115.09,72.44A18.77,18.77,0,0,0,108,67.13a18.64,18.64,0,0,0-26,17.14c0,.65,0,1.29.1,1.91a19.07,19.07,0,0,0,.49,2.65A18.71,18.71,0,0,0,95.06,102l.07,0a18.35,18.35,0,0,0,5.58.86,18.67,18.67,0,0,0,17.14-11.32l0-.08a18.56,18.56,0,0,0-2.79-19.07Zm-20,21a6.59,6.59,0,0,1-.59-.36l.13-.33.68-1.9a8.18,8.18,0,0,0,1.92.94,8.68,8.68,0,0,0,2.84.5c2.36,0,3.74-1.36,3.74-3.26s-1.08-3-3.54-4c-3.4-1.34-5.49-2.9-5.49-5.8s2-4.86,5-5.35V70.63h2.1v3.23A9,9,0,0,1,106.18,75l-.84,2.2a7.93,7.93,0,0,0-4.19-1.17c-2.56,0-3.31,1.54-3.31,2.9,0,1.7,1,2.56,3.92,3.79,3.42,1.4,5.15,3.1,5.15,6.06,0,2.66-1.83,5.12-5.26,5.65v3.47H99.56V94.59a7.93,7.93,0,0,1-1-.07A9.93,9.93,0,0,1,95.08,93.48Z"/><path class="cls-2" d="M56.9,67.71A10.92,10.92,0,0,0,60.11,60c0-.36,0-.72-.06-1.08l-2.58-5.6H42.57v15.4h0A11,11,0,0,0,56.9,67.71Z"/><path class="cls-2" d="M144.51,67.71a10.93,10.93,0,0,0,14.32,1V53.27h-15.2a10.84,10.84,0,0,0,.88,14.44Z"/><path class="cls-2" d="M144.4,101.13a10.9,10.9,0,0,0-1.15,14.1h15.58v-15A11,11,0,0,0,144.4,101.13Z"/><path class="cls-2" d="M158.84,72.64v-.78a13.5,13.5,0,0,1-16.24-2.25,13.49,13.49,0,0,1-3.5-6,14,14,0,0,1-.5-3.67,13.38,13.38,0,0,1,1.81-6.68H61A13.51,13.51,0,0,1,62.81,60a13.9,13.9,0,0,1-.53,3.77,13.47,13.47,0,0,1-3.47,5.89,13.5,13.5,0,0,1-16.24,2.25V96.92a13.6,13.6,0,0,1,20.13,12,13.49,13.49,0,0,1-1.62,6.35h79a13.48,13.48,0,0,1,2.37-16A13.66,13.66,0,0,1,158.84,97V72.7l.09,0V72.6Zm-58.13,30.27a18.35,18.35,0,0,1-5.58-.86l-.07,0a18.71,18.71,0,0,1-12.41-13.2,19.07,19.07,0,0,1-.49-2.65c-.06-.62-.1-1.26-.1-1.91a18.65,18.65,0,1,1,35.82,7.24l0,.08A18.67,18.67,0,0,1,100.71,102.91Z"/><path class="cls-2" d="M98.57,94.52a7.93,7.93,0,0,0,1,.07v3.33h2.09V94.45c3.43-.53,5.26-3,5.26-5.65,0-3-1.73-4.66-5.15-6.06-2.9-1.23-3.92-2.09-3.92-3.79,0-1.36.75-2.9,3.31-2.9a7.93,7.93,0,0,1,4.19,1.17l.84-2.2a9,9,0,0,0-4.33-1.16V70.63h-2.1V74c-3,.49-5,2.59-5,5.35s2.09,4.46,5.49,5.8c2.46,1,3.54,2.13,3.54,4s-1.38,3.26-3.74,3.26a8.68,8.68,0,0,1-2.84-.5,12.62,12.62,0,0,1,1,1.76C98.35,93.89,98.45,94.21,98.57,94.52Z"/><path class="cls-3" d="M14.68,80.81c7.86-2.74,27.33-6.76,44.93-2.52,17.16,4.13,13.06,1.91,32.9,2.09l1.57,0c21.66.31,19.69,8.63,19.69,8.63.73,8.83-9.07,9.56-9.07,9.56l-35.37,3.59s-3.65,4.54-3,8.66c.12.8,1.61.83,3.94.37l24,3.83c-7.6,6.47-18.39,15.59-23,16.48-3.7.71-10.94,0-20.37-1.21-7.12-.93-15.48-2.18-24.5-3.37-3.69-.49-19.79-.82-26.38.71v-43C5.83,81.24,9.21,82.72,14.68,80.81Z"/></g></g></svg>