<svg xmlns="http://www.w3.org/2000/svg" width="209.757" height="141.058" viewBox="0 0 209.757 141.058">
  <g id="Group_14" data-name="Group 14" transform="translate(-431.511 -449.257)">
    <g id="Group_10" data-name="Group 10">
      <g id="Group_9" data-name="Group 9">
        <path id="Path_99" data-name="Path 99" d="M638.588,460.253H496.656a3.112,3.112,0,0,0,0,6.164H638.588a3.112,3.112,0,0,0,0-6.164Z" fill="#e0e0de"/>
        <path id="Path_100" data-name="Path 100" d="M629.64,484.979H503.613a3.114,3.114,0,0,0,0,6.168H629.64a3.114,3.114,0,0,0,0-6.168Z" fill="#e0e0de"/>
        <path id="Path_101" data-name="Path 101" d="M620.191,509.709h-111.1a3.111,3.111,0,0,0,0,6.163h111.1a3.112,3.112,0,0,0,0-6.163Z" fill="#e0e0de"/>
        <path id="Path_102" data-name="Path 102" d="M522.678,464.371l-5.321.793,7.246,64.31,5.62,1.371Z" fill="#e0e0de"/>
        <path id="Path_103" data-name="Path 103" d="M544.071,464.838l-5.352.424,3.937,66.17,5.62-1.173Z" fill="#e0e0de"/>
        <path id="Path_104" data-name="Path 104" d="M560.215,463.908,560.2,531.63l5.111-.2.268-67.524Z" fill="#e0e0de"/>
        <path id="Path_105" data-name="Path 105" d="M584.985,463.683l-10.14,68.727,5.794-2.35,9.633-65.354Z" fill="#e0e0de"/>
        <path id="Path_106" data-name="Path 106" d="M608.045,463.653,591.369,532.8l5.961-1.371,15.875-66.13Z" fill="#e0e0de"/>
        <path id="Path_107" data-name="Path 107" d="M630.611,462.542l-22.04,66.933,5.279,2.548,21.776-67.317Z" fill="#e0e0de"/>
      </g>
    </g>
    <g id="Group_11" data-name="Group 11">
      <path id="Path_108" data-name="Path 108" d="M625.148,524.9H516.97l-21.8-70.252c-.314,3.761-3.693,4.533-6.945,4.987l22.284,71.3a4,4,0,0,0,3.7,2.995H625.148a4.559,4.559,0,0,0,0-9.03Z" fill="#cf3033"/>
      <path id="Path_109" data-name="Path 109" d="M494.174,451.075a7.406,7.406,0,0,0-4.922-1.818H438.524c-3.873,0-7.013,2.82-7.013,6.3s3.14,6.3,7.013,6.3h50.728a7.414,7.414,0,0,0,.843-.077,6.622,6.622,0,0,0,6.1-5.622,5.552,5.552,0,0,0,.066-.6A5.978,5.978,0,0,0,494.174,451.075Z" fill="#e0e0de"/>
    </g>
    <path id="Path_110" data-name="Path 110" d="M594.731,576.8H508.056l10.349-48.013,5.432,1.549-8.627,40.026h79.52Z" fill="#cf3033"/>
    <g id="Group_12" data-name="Group 12">
      <circle id="Ellipse_1" data-name="Ellipse 1" cx="15.571" cy="15.571" r="15.571" transform="matrix(0.999, -0.038, 0.038, 0.999, 496.385, 559.196)" fill="#e0e0de"/>
      <path id="Path_111" data-name="Path 111" d="M524.22,574.158a11.678,11.678,0,1,1-11.678-11.678A11.676,11.676,0,0,1,524.22,574.158Z" fill="#f17c15"/>
    </g>
    <g id="Group_13" data-name="Group 13">
      <path id="Path_112" data-name="Path 112" d="M608.7,574.158a15.57,15.57,0,1,1-15.57-15.571A15.571,15.571,0,0,1,608.7,574.158Z" fill="#e0e0de"/>
      <path id="Path_113" data-name="Path 113" d="M604.807,574.158a11.678,11.678,0,1,1-11.678-11.678A11.676,11.676,0,0,1,604.807,574.158Z" fill="#f17c15"/>
    </g>
  </g>
</svg>
