<svg xmlns="http://www.w3.org/2000/svg" viewBox="0 0 209.76 146.42"><defs><style>.cls-1{fill:#db4744;}.cls-2{fill:#f39226;}.cls-3{fill:#e6e6e5;}</style></defs><title>Asset 2</title><g id="Layer_2" data-name="Layer 2"><g id="Layer_1-2" data-name="Layer 1"><path class="cls-1" d="M184.75,67.38a2.58,2.58,0,0,1-3.17,1.76L136,59.1a2.58,2.58,0,0,1-2.14-2.93l12-54.34A2.58,2.58,0,0,1,149,.07l45.55,10A2.57,2.57,0,0,1,196.72,13Z"/><path class="cls-2" d="M151.08,72.15c0,1.48-1.68,2.68-3.76,2.68H82.77c-2.08,0-3.76-1.2-3.76-2.68V10.26c0-1.47,1.68-2.67,3.76-2.67h64.55c2.08,0,3.76,1.2,3.76,2.67Z"/><path class="cls-3" d="M207.08,16.94H65.14A2.9,2.9,0,0,0,62.46,20a2.9,2.9,0,0,0,2.68,3.08H207.08A2.9,2.9,0,0,0,209.76,20,2.9,2.9,0,0,0,207.08,16.94Z"/><path class="cls-3" d="M198.13,41.67H72.1a3.12,3.12,0,0,0,0,6.17h126a3.12,3.12,0,0,0,0-6.17Z"/><path class="cls-3" d="M188.68,66.4H77.58a3.11,3.11,0,0,0,0,6.16h111.1a3.11,3.11,0,0,0,0-6.16Z"/><polygon class="cls-3" points="91.17 21.06 85.85 21.86 93.09 86.17 98.71 87.54 91.17 21.06"/><polygon class="cls-3" points="112.56 21.53 107.21 21.95 111.14 88.12 116.77 86.95 112.56 21.53"/><polygon class="cls-3" points="128.7 20.6 128.69 88.32 133.8 88.12 134.07 20.6 128.7 20.6"/><polygon class="cls-3" points="153.47 20.37 143.33 89.1 149.13 86.75 158.76 21.4 153.47 20.37"/><polygon class="cls-3" points="176.53 20.34 159.86 89.49 165.82 88.12 181.69 21.99 176.53 20.34"/><polygon class="cls-3" points="199.1 19.23 177.06 86.17 182.34 88.71 204.11 21.4 199.1 19.23"/><path class="cls-1" d="M193.64,81.59H85.46L63.66,11.34c-.31,3.76-3.69,4.53-6.94,5L79,87.63a4,4,0,0,0,3.7,3H193.64a4.24,4.24,0,0,0,3.92-4.51C197.56,83.61,195.81,81.59,193.64,81.59Z"/><path class="cls-3" d="M62.66,7.77A7.35,7.35,0,0,0,57.74,6H7C3.14,6,0,8.77,0,12.24s3.14,6.3,7,6.3H57.74a7.51,7.51,0,0,0,.84-.07,6.65,6.65,0,0,0,6.11-5.63,5.8,5.8,0,0,0,.06-.6A6,6,0,0,0,62.66,7.77Z"/><polygon class="cls-1" points="163.22 133.49 76.55 133.49 86.89 85.48 92.33 87.03 83.7 127.05 163.22 127.05 163.22 133.49"/><circle class="cls-3" cx="81.03" cy="130.85" r="15.57" transform="translate(-4.96 3.21) rotate(-2.2)"/><path class="cls-2" d="M92.71,130.85A11.68,11.68,0,1,1,81,119.17,11.68,11.68,0,0,1,92.71,130.85Z"/><path class="cls-3" d="M177.19,130.85a15.57,15.57,0,1,1-15.57-15.57A15.57,15.57,0,0,1,177.19,130.85Z"/><path class="cls-2" d="M173.3,130.85a11.68,11.68,0,1,1-11.68-11.68A11.69,11.69,0,0,1,173.3,130.85Z"/></g></g></svg>