<svg xmlns="http://www.w3.org/2000/svg" viewBox="0 0 131.21 184.43"><defs><style>.cls-1{fill:#e3c08a;}.cls-2{fill:#c9a779;}.cls-3{fill:#f3f6fb;}.cls-4{fill:#c7c8cc;}.cls-5{fill:#c19f77;}</style></defs><title>send</title><g id="Layer_2" data-name="Layer 2"><g id="Layer_1-2" data-name="Layer 1"><rect class="cls-1" x="0.01" y="77.43" width="131.18" height="107"/><polygon class="cls-2" points="122.75 60.4 122.63 60.4 122.56 60.2 65.6 60.3 8.64 60.2 8.58 60.4 8.45 60.4 0 77.41 131.21 77.41 122.75 60.4"/><rect class="cls-3" x="56.43" y="77.43" width="18.34" height="44.36"/><polygon class="cls-4" points="72.25 60.29 71.06 60.29 60.14 60.29 58.96 60.29 56.44 77.41 74.77 77.41 72.25 60.29"/><rect class="cls-5" x="93.01" y="173.13" width="30.51" height="6.01"/><polygon class="cls-5" points="106.5 152.53 101.6 147.56 96.63 152.53 98.15 152.53 98.15 171.41 104.98 171.41 104.98 152.53 106.5 152.53"/><polygon class="cls-5" points="119.9 157.2 116.22 153.46 112.48 157.2 113.62 157.2 113.62 171.41 118.76 171.41 118.76 157.2 119.9 157.2"/><rect class="cls-5" x="4.66" y="85.87" width="20.96" height="4.01"/><rect class="cls-5" x="29.32" y="85.87" width="16.02" height="4.01"/><rect class="cls-5" x="4.66" y="94.21" width="11.71" height="4.01"/><rect class="cls-5" x="33.63" y="94.21" width="11.71" height="4.01"/><rect class="cls-5" x="19.15" y="94.21" width="11.71" height="4.01"/><rect class="cls-1" x="25.83" y="10.45" width="79.54" height="64.88"/><polygon class="cls-2" points="100.26 0.12 100.18 0.12 100.14 0 65.6 0.06 31.06 0 31.03 0.12 30.95 0.12 25.82 10.44 105.38 10.44 100.26 0.12"/><rect class="cls-3" x="60.04" y="10.45" width="11.12" height="26.9"/><polygon class="cls-4" points="69.63 0.06 68.92 0.06 62.29 0.06 61.57 0.06 60.05 10.44 71.16 10.44 69.63 0.06"/><rect class="cls-5" x="82.22" y="68.48" width="18.5" height="3.64"/><polygon class="cls-5" points="90.4 55.99 87.43 52.97 84.42 55.99 85.34 55.99 85.34 67.44 89.48 67.44 89.48 55.99 90.4 55.99"/><polygon class="cls-5" points="98.53 58.82 96.29 56.55 94.03 58.82 94.72 58.82 94.72 67.44 97.83 67.44 97.83 58.82 98.53 58.82"/><rect class="cls-5" x="28.65" y="15.57" width="12.71" height="2.43"/><rect class="cls-5" x="43.6" y="15.57" width="9.72" height="2.43"/><rect class="cls-5" x="28.65" y="20.62" width="7.1" height="2.43"/><rect class="cls-5" x="46.22" y="20.62" width="7.1" height="2.43"/><rect class="cls-5" x="37.43" y="20.62" width="7.1" height="2.43"/></g></g></svg>