<svg xmlns="http://www.w3.org/2000/svg" viewBox="0 0 200.9 141.73"><defs><style>.cls-1{fill:#fdfcec;}.cls-2{fill:#00a4a1;}.cls-3{fill:#f39226;}.cls-4{fill:#b06a17;}.cls-5{fill:#58595b;}.cls-6{fill:#f4f4f4;}.cls-7{fill:#f9f6ec;}.cls-8{fill:#c5d8d2;}.cls-9{fill:#404e51;}</style></defs><title>trac</title><g id="Layer_2" data-name="Layer 2"><g id="Layer_1-2" data-name="Layer 1"><path class="cls-1" d="M31.51,122.4c0,5.25-3.86,9.5-8.62,9.5s-8.62-4.25-8.62-9.5,3.86-9.49,8.62-9.49S31.51,117.16,31.51,122.4Z"/><path class="cls-1" d="M166.18,121.82c0,5.4-3.92,9.79-8.77,9.79s-8.76-4.39-8.76-9.79,3.92-9.79,8.76-9.79S166.18,116.42,166.18,121.82Z"/><polygon class="cls-2" points="146.61 43.09 146.61 79.02 176.69 76.98 176.99 72.89 168.81 46.3 146.61 43.09"/><rect class="cls-3" x="180.44" y="100.26" width="15.85" height="9.4"/><path class="cls-4" d="M125.37,21.68H5.21A4.65,4.65,0,0,0,.56,26.33V94.94a4.65,4.65,0,0,0,4.65,4.64H125.37A4.65,4.65,0,0,0,130,94.94V26.33A4.65,4.65,0,0,0,125.37,21.68Z"/><path class="cls-5" d="M156.3,102.62a19.56,19.56,0,1,0,19.56,19.56A19.55,19.55,0,0,0,156.3,102.62Zm3.95,23.85a5.84,5.84,0,0,1-9.78-4.29,5.22,5.22,0,0,1,.1-1.06,5.83,5.83,0,0,1,11.47,0,6.05,6.05,0,0,1,.1,1.06A5.81,5.81,0,0,1,160.25,126.47Z"/><path class="cls-5" d="M23.56,102.62h-.1A19.57,19.57,0,0,0,4.24,118.85,20.22,20.22,0,0,0,4,122.18a19.56,19.56,0,0,0,39.11,0,20.22,20.22,0,0,0-.29-3.33A19.57,19.57,0,0,0,23.56,102.62Zm3.9,23.85a5.85,5.85,0,0,1-9.79-4.29,5.22,5.22,0,0,1,.11-1.06,5.82,5.82,0,0,1,10.52-2.27,5.72,5.72,0,0,1,.95,2.27,6.05,6.05,0,0,1,.1,1.06A5.81,5.81,0,0,1,27.46,126.47Z"/><path class="cls-6" d="M16.49,102.62H0v16.23H3a1.52,1.52,0,0,0,0-.21A20.71,20.71,0,0,1,16.49,102.62Z"/><path class="cls-6" d="M196.8,108.69c-.08-8.92.17-17.77-.16-26.69q-4.27-1.95-8.59-4c-2-.93-4-1.87-6-2.85a5.73,5.73,0,0,1-.75-.35c-4.06-2.18-3.93-7.65-5.48-11.52-1.6-6.57-4.25-12.95-5.85-19.5a39.83,39.83,0,0,1-1.27-12.76c-11.67-.17-23.26-.09-34.85,0h-.12v0l-.06-.05V45.4l.06.05c0,19-.19,38.12,0,57.17H30.53a20.71,20.71,0,0,1,13.45,16l0,.21h90c2.87-9.09,10-17.85,20.23-18.43,11.3-1.63,21.78,7,24.23,17.85,7.46.09,14.91.09,22.36.09,0-3.12.08-6.31.08-9.42Zm-47.65-35c-.08-8.68-.25-17.36.08-26,5.81,0,11.71-.08,17.52.16,2.3,8.6,5.08,17.12,7.37,25.79C165.77,73.73,157.5,73.65,149.15,73.65Zm46.72,35.69c-5.07.18-10.21.18-15.27.09-.09-3.05-.09-6,0-9.07q7.59-.14,15.18,0C196,103.41,196,106.38,195.87,109.34Z"/><path class="cls-2" d="M116.86,48.06A48.07,48.07,0,1,1,68.8,0,48.07,48.07,0,0,1,116.86,48.06Z"/><path class="cls-7" d="M30.92,48.06A37.87,37.87,0,0,0,68.8,85.94V10.18A37.88,37.88,0,0,0,30.92,48.06Z"/><path class="cls-8" d="M68.8,10.18V85.94a37.88,37.88,0,1,0,0-75.76Z"/><path class="cls-9" d="M74.91,48.06A6.11,6.11,0,1,1,68.8,42,6.11,6.11,0,0,1,74.91,48.06Z"/><path class="cls-9" d="M71.11,39.29c0,.81-1,1.47-2.25,1.47h0c-1.23,0-2.24-.66-2.24-1.47V17c0-.82,1-1.48,2.24-1.48h0c1.24,0,2.25.66,2.25,1.48Z"/><path class="cls-9" d="M49.15,62a2.61,2.61,0,0,1-3.46-1.3h0a2.61,2.61,0,0,1,1.07-3.55L59.11,51a2.63,2.63,0,0,1,3.47,1.31h0a2.63,2.63,0,0,1-1.07,3.55Z"/></g></g></svg>